<svg width="28" height="28" viewBox="0 0 28 28" fill="none" xmlns="http://www.w3.org/2000/svg">
<path d="M16.2458 24.5H11.7546C6.35239 24.5 3.65131 24.5 2.65592 22.7429C1.66053 20.9859 3.04209 18.6566 5.8052 13.9982L8.05083 10.2122C10.705 5.73741 12.0321 3.5 14.0002 3.5C15.9682 3.5 17.2953 5.7374 19.9495 10.2122L22.1952 13.9982C24.9582 18.6566 26.3398 20.9859 25.3444 22.7429C24.349 24.5 21.6479 24.5 16.2458 24.5Z" stroke="#FF5641" stroke-width="1.5" stroke-linecap="round" stroke-linejoin="round"/>
<path d="M14 10.5V15.1667" stroke="#FF5641" stroke-width="1.5" stroke-linecap="round" stroke-linejoin="round"/>
<path d="M14.146 19.5417H14.0002M14.2918 19.5417C14.2918 19.7028 14.1613 19.8333 14.0002 19.8333C13.839 19.8333 13.7085 19.7028 13.7085 19.5417C13.7085 19.3805 13.839 19.25 14.0002 19.25C14.1613 19.25 14.2918 19.3805 14.2918 19.5417Z" stroke="#FF5641" stroke-width="1.5" stroke-linecap="round" stroke-linejoin="round"/>
</svg>
