<svg width="24" height="24" viewBox="0 0 24 24" fill="none" xmlns="http://www.w3.org/2000/svg">
<path d="M8.39629 4.77376C8.40379 4.75126 8.40754 4.72876 8.41504 4.70626H5.96629C5.66834 4.70715 5.37454 4.77621 5.10739 4.90816C4.84024 5.0401 4.60684 5.23144 4.42504 5.46751L1.89754 8.79001C1.7123 9.0321 1.58759 9.31496 1.53379 9.61501H7.02754L8.39629 4.77376ZM7.03129 10.365H1.54504C1.60658 10.6633 1.73907 10.9425 1.93129 11.1788L10.41 21.6788L10.3688 21.54L7.03129 10.365ZM13.6313 21.5363C13.2627 22.2349 22.1438 11.0104 22.0688 11.1788C22.2606 10.9417 22.3942 10.663 22.4588 10.365H16.9688L13.6313 21.5363ZM19.575 5.46751C19.3932 5.23144 19.1598 5.0401 18.8927 4.90816C18.6255 4.77621 18.3317 4.70715 18.0338 4.70626H15.5813C15.5917 4.72937 15.6005 4.75318 15.6075 4.77751L16.9725 9.61501H22.4663C22.4125 9.31496 22.2878 9.0321 22.1025 8.79001L19.575 5.46751ZM7.81504 10.365L11.0888 21.3225L11.355 22.2075C11.4387 22.491 11.7552 22.4951 12 22.5C12.2449 22.4951 12.5618 22.491 12.645 22.2075L12.9113 21.3225L16.185 10.365H7.81504ZM16.1888 9.61501C16.1115 9.33638 14.9262 5.12776 14.8838 4.98001C14.862 4.90129 14.815 4.8319 14.7499 4.78245C14.6849 4.73301 14.6055 4.70624 14.5238 4.70626H9.47629C9.09754 4.69126 9.06979 5.19901 8.98129 5.45626L7.81129 9.61501H16.1888ZM6.45004 19.5075C5.96682 19.4112 5.52297 19.1739 5.17456 18.8255C4.82616 18.4771 4.58882 18.0332 4.49254 17.55C4.47533 17.4652 4.42934 17.389 4.36236 17.3343C4.29539 17.2795 4.21154 17.2496 4.12504 17.2496C4.03854 17.2496 3.9547 17.2795 3.88772 17.3343C3.82075 17.389 3.77476 17.4652 3.75754 17.55C3.66126 18.0332 3.42393 18.4771 3.07552 18.8255C2.72711 19.1739 2.28327 19.4112 1.80004 19.5075C1.71645 19.5261 1.64171 19.5727 1.58814 19.6395C1.53457 19.7063 1.50537 19.7894 1.50537 19.875C1.50537 19.9606 1.53457 20.0437 1.58814 20.1105C1.64171 20.1773 1.71645 20.2239 1.80004 20.2425C2.28327 20.3388 2.72711 20.5761 3.07552 20.9245C3.42393 21.2729 3.66126 21.7168 3.75754 22.2C3.77476 22.2848 3.82075 22.361 3.88772 22.4157C3.9547 22.4705 4.03854 22.5004 4.12504 22.5004C4.21154 22.5004 4.29539 22.4705 4.36236 22.4157C4.42934 22.361 4.47533 22.2848 4.49254 22.2C4.58882 21.7168 4.82616 21.2729 5.17456 20.9245C5.52297 20.5761 5.96682 20.3388 6.45004 20.2425C6.53363 20.2239 6.60838 20.1773 6.66195 20.1105C6.71552 20.0437 6.74471 19.9606 6.74471 19.875C6.74471 19.7894 6.71552 19.7063 6.66195 19.6395C6.60838 19.5727 6.53363 19.5261 6.45004 19.5075ZM19.05 3.74251C19.348 3.80212 19.6217 3.94859 19.8366 4.16347C20.0515 4.37835 20.1979 4.65203 20.2575 4.95001C20.2748 5.03478 20.3207 5.11099 20.3877 5.16574C20.4547 5.22048 20.5385 5.25039 20.625 5.25039C20.7115 5.25039 20.7954 5.22048 20.8624 5.16574C20.9293 5.11099 20.9753 5.03478 20.9925 4.95001C21.0522 4.65203 21.1986 4.37835 21.4135 4.16347C21.6284 3.94859 21.9021 3.80212 22.2 3.74251C22.2836 3.7239 22.3584 3.67734 22.4119 3.61053C22.4655 3.54372 22.4947 3.46065 22.4947 3.37501C22.4947 3.28937 22.4655 3.2063 22.4119 3.13949C22.3584 3.07267 22.2836 3.02612 22.2 3.00751C21.902 2.94794 21.6283 2.80149 21.4135 2.5866C21.1986 2.37171 21.0521 2.09801 20.9925 1.80001C20.9753 1.71524 20.9293 1.63902 20.8624 1.58428C20.7954 1.52954 20.7115 1.49963 20.625 1.49963C20.5385 1.49963 20.4547 1.52954 20.3877 1.58428C20.3207 1.63902 20.2748 1.71524 20.2575 1.80001C20.198 2.09801 20.0515 2.37171 19.8366 2.5866C19.6217 2.80149 19.348 2.94794 19.05 3.00751C18.9665 3.02612 18.8917 3.07267 18.8381 3.13949C18.7846 3.2063 18.7554 3.28937 18.7554 3.37501C18.7554 3.46065 18.7846 3.54372 18.8381 3.61053C18.8917 3.67734 18.9665 3.7239 19.05 3.74251Z" fill="url(#paint0_linear_1_1177)"/>
<defs>
<linearGradient id="paint0_linear_1_1177" x1="12" y1="1.49963" x2="12" y2="22.5004" gradientUnits="userSpaceOnUse">
<stop stop-color="#EEBF65"/>
<stop offset="1" stop-color="#EEBA08"/>
</linearGradient>
</defs>
</svg>
