<svg width="48" height="48" viewBox="0 0 48 48" fill="none" xmlns="http://www.w3.org/2000/svg">
<path d="M22.844 14.7565C23.3904 14.2522 23.6636 14 24 14C24.3364 14 24.6096 14.2522 25.156 14.7565L26.0876 15.6163C26.3746 15.881 26.518 16.0134 26.7008 16.0701C26.8838 16.1268 27.0814 16.1001 27.4766 16.0468L28.76 15.8736C29.5128 15.772 29.8892 15.7212 30.1614 15.9098C30.4334 16.0984 30.4992 16.4557 30.6306 17.1702L30.8544 18.388C30.9234 18.7631 30.958 18.9506 31.071 19.099C31.184 19.2475 31.3604 19.3367 31.7128 19.5152L32.8578 20.0948C33.5296 20.4346 33.8654 20.6046 33.9694 20.9098C34.0732 21.215 33.9062 21.5408 33.5724 22.1926L33.0032 23.3034C32.8278 23.6454 32.7402 23.8166 32.7402 24C32.7402 24.1834 32.8278 24.3546 33.0032 24.6966L33.5724 25.8074C33.9062 26.4592 34.0732 26.785 33.9694 27.0902C33.8654 27.3954 33.5296 27.5654 32.8578 27.9052L31.7128 28.4848C31.3604 28.6632 31.184 28.7526 31.071 28.901C30.958 29.0494 30.9234 29.237 30.8544 29.612L30.6306 30.8298C30.4992 31.5444 30.4334 31.9016 30.1614 32.0902C29.8892 32.2788 29.5128 32.228 28.76 32.1264L27.4766 31.9532C27.0814 31.8998 26.8838 31.8732 26.7008 31.93C26.518 31.9866 26.3746 32.119 26.0876 32.3838L25.156 33.2434C24.6096 33.7478 24.3364 34 24 34C23.6636 34 23.3904 33.7478 22.844 33.2434L21.9124 32.3838C21.6254 32.119 21.482 31.9866 21.2992 31.93C21.1162 31.8732 20.9186 31.8998 20.5234 31.9532L19.2401 32.1264C18.4872 32.228 18.1107 32.2788 17.8386 32.0902C17.5665 31.9016 17.5008 31.5444 17.3695 30.8298L17.1455 29.612C17.0766 29.237 17.0421 29.0494 16.929 28.901C16.816 28.7526 16.6397 28.6632 16.2871 28.4848L15.1422 27.9052C14.4705 27.5654 14.1346 27.3954 14.0307 27.0902C13.9268 26.785 14.0937 26.4592 14.4277 25.8074L14.9969 24.6966C15.1722 24.3546 15.2598 24.1834 15.2598 24C15.2598 23.8166 15.1722 23.6454 14.9969 23.3034L14.4277 22.1926C14.0937 21.5408 13.9268 21.215 14.0307 20.9098C14.1346 20.6046 14.4705 20.4346 15.1422 20.0948L16.2871 19.5152C16.6397 19.3367 16.816 19.2475 16.929 19.099C17.0421 18.9506 17.0766 18.7631 17.1455 18.388L17.3695 17.1702C17.5008 16.4557 17.5665 16.0984 17.8386 15.9098C18.1107 15.7212 18.4872 15.772 19.2401 15.8736L20.5234 16.0468C20.9186 16.1001 21.1162 16.1268 21.2992 16.0701C21.482 16.0134 21.6254 15.881 21.9124 15.6163L22.844 14.7565Z" stroke="#281240" stroke-width="3"/>
<path d="M12.9662 7.31638C12.2343 6.5079 11.1765 6 10 6C7.79086 6 6 7.79086 6 10C6 11.1765 6.5079 12.2343 7.31638 12.9662M12.9662 7.31638C13.6087 8.02606 14 8.96732 14 10C14 12.2091 12.2091 14 10 14C8.96732 14 8.02606 13.6087 7.31638 12.9662M12.9662 7.31638C16.1288 5.2206 19.9219 4 24 4C35.0456 4 44 12.9543 44 24C44 28.0636 42.788 31.8442 40.706 35M7.31638 12.9662C5.2206 16.1288 4 19.9219 4 24C4 35.0456 12.9543 44 24 44C28.0782 44 31.8712 42.7794 35.0338 40.6836M35.0338 40.6836C35.7656 41.4922 36.8236 42 38 42C40.2092 42 42 40.2092 42 38C42 35.7908 40.2092 34 38 34C35.7908 34 34 35.7908 34 38C34 39.0326 34.3914 39.974 35.0338 40.6836Z" stroke="#281240" stroke-width="3" stroke-linecap="round"/>
</svg>
