<svg width="46" height="46" viewBox="0 0 46 46" fill="none" xmlns="http://www.w3.org/2000/svg">
<rect width="46" height="46" rx="23" fill="url(#paint0_radial_331_9201)"/>
<g clip-path="url(#clip0_331_9201)">
<g clip-path="url(#clip1_331_9201)">
<path d="M31.4802 28.9308L29.9672 29.2888C29.8016 29.3263 29.65 29.4098 29.5298 29.5298C29.4097 29.6498 29.3259 29.8013 29.2882 29.9668L28.9682 31.3148C28.7932 32.0478 27.8582 32.2768 27.3722 31.6998L24.6322 28.5458C24.5812 28.4872 24.546 28.4165 24.5299 28.3404C24.5138 28.2643 24.5174 28.1854 24.5403 28.1111C24.5633 28.0368 24.6048 27.9696 24.6609 27.9159C24.7171 27.8621 24.786 27.8235 24.8612 27.8038C26.4882 27.4082 27.9442 26.4985 29.0132 25.2098C29.0527 25.1592 29.1025 25.1175 29.1592 25.0874C29.2159 25.0574 29.2784 25.0396 29.3424 25.0352C29.4065 25.0309 29.4708 25.0401 29.531 25.0623C29.5913 25.0844 29.6462 25.119 29.6922 25.1638L31.7272 27.1988C32.4232 27.8948 32.1772 28.7658 31.4802 28.9308Z" fill="url(#paint1_radial_331_9201)"/>
<path d="M14.475 28.9308L15.987 29.2888C16.1526 29.3263 16.3043 29.4098 16.4244 29.5298C16.5446 29.6498 16.6283 29.8013 16.666 29.9668L16.986 31.3148C17.161 32.0478 18.096 32.2768 18.582 31.6998L21.322 28.5458C21.3731 28.4872 21.4083 28.4165 21.4243 28.3404C21.4404 28.2643 21.4368 28.1854 21.4139 28.1111C21.391 28.0368 21.3495 27.9696 21.2933 27.9159C21.2372 27.8621 21.1682 27.8235 21.093 27.8038C19.4661 27.4082 18.01 26.4985 16.941 25.2098C16.9015 25.1592 16.8518 25.1175 16.795 25.0874C16.7383 25.0574 16.6759 25.0396 16.6118 25.0352C16.5477 25.0309 16.4835 25.0401 16.4232 25.0623C16.363 25.0844 16.308 25.119 16.262 25.1638L14.227 27.1988C13.531 27.8948 13.778 28.7658 14.475 28.9308Z" fill="url(#paint2_radial_331_9201)"/>
<path d="M23 13.833C22.1571 13.8324 21.3224 13.9979 20.5436 14.3201C19.7647 14.6424 19.057 15.115 18.461 15.711C17.865 16.307 17.3924 17.0147 17.0701 17.7936C16.7479 18.5724 16.5824 19.4071 16.583 20.25C16.583 21.579 16.977 22.798 17.656 23.816C18.153 24.5572 18.7995 25.1863 19.554 25.663C20.3084 26.1397 21.1542 26.4534 22.037 26.584C22.349 26.639 22.67 26.666 23 26.666C23.33 26.666 23.65 26.639 23.962 26.584C24.845 26.4535 25.691 26.1399 26.4456 25.6632C27.2002 25.1865 27.8469 24.5573 28.344 23.816C29.048 22.7603 29.4215 21.5189 29.417 20.25C29.4177 19.4071 29.2521 18.5724 28.9299 17.7936C28.6076 17.0147 28.135 16.307 27.539 15.711C26.943 15.115 26.2353 14.6424 25.4565 14.3201C24.6776 13.9979 23.8429 13.8324 23 13.833ZM25.805 20.048L25.045 20.808C24.9772 20.8827 24.9276 20.9723 24.9004 21.0695C24.8731 21.1667 24.8689 21.2689 24.888 21.368L25.108 22.312C25.282 23.055 24.888 23.348 24.228 22.954L23.312 22.413C23.2189 22.3634 23.115 22.3374 23.0095 22.3374C22.904 22.3374 22.8001 22.3634 22.707 22.413L21.79 22.953C21.13 23.339 20.736 23.055 20.91 22.313L21.13 21.368C21.1462 21.2689 21.1406 21.1675 21.1137 21.0708C21.0867 20.9741 21.0391 20.8845 20.974 20.808L20.194 20.048C19.746 19.598 19.892 19.15 20.516 19.048L21.496 18.884C21.5862 18.8633 21.671 18.824 21.7452 18.7688C21.8194 18.7135 21.8813 18.6434 21.927 18.563L22.468 17.481C22.762 16.895 23.238 16.895 23.532 17.481L24.072 18.563C24.1186 18.6444 24.1819 18.715 24.2577 18.7701C24.3336 18.8253 24.4202 18.8638 24.512 18.883L25.493 19.049C26.107 19.149 26.254 19.599 25.805 20.048Z" fill="url(#paint3_radial_331_9201)"/>
</g>
</g>
<rect x="0.5" y="0.5" width="45" height="45" rx="22.5" stroke="#F3F3F1"/>
<defs>
<radialGradient id="paint0_radial_331_9201" cx="0" cy="0" r="1" gradientUnits="userSpaceOnUse" gradientTransform="translate(23 23) scale(34.5 16.1)">
<stop offset="0.353129" stop-color="#F0ECE7"/>
<stop offset="1" stop-color="white"/>
</radialGradient>
<radialGradient id="paint1_radial_331_9201" cx="0" cy="0" r="1" gradientUnits="userSpaceOnUse" gradientTransform="translate(31.4272 25.5798) rotate(137.472) scale(8.88801 6.68438)">
<stop stop-color="#FF9937"/>
<stop offset="0.895" stop-color="#FE6A2E"/>
</radialGradient>
<radialGradient id="paint2_radial_331_9201" cx="0" cy="0" r="1" gradientUnits="userSpaceOnUse" gradientTransform="translate(20.72 25.5798) rotate(137.472) scale(8.88801 6.68438)">
<stop stop-color="#FF9937"/>
<stop offset="0.895" stop-color="#FE6A2E"/>
</radialGradient>
<radialGradient id="paint3_radial_331_9201" cx="0" cy="0" r="1" gradientUnits="userSpaceOnUse" gradientTransform="translate(28.213 14.836) rotate(135) scale(15.5969 11.7737)">
<stop stop-color="#FF9937"/>
<stop offset="0.895" stop-color="#FE6A2E"/>
</radialGradient>
<clipPath id="clip0_331_9201">
<rect width="28" height="28" fill="white" transform="translate(9 9)"/>
</clipPath>
<clipPath id="clip1_331_9201">
<rect width="28" height="28" fill="white" transform="translate(9 9)"/>
</clipPath>
</defs>
</svg>
