<svg width="20" height="14" viewBox="0 0 20 14" fill="none" xmlns="http://www.w3.org/2000/svg">
<path d="M0 13.9999V7.99994C0 7.54994 0.0916667 7.14161 0.275 6.77494C0.458333 6.40827 0.7 6.08327 1 5.79994V2.99994C1 2.16661 1.29167 1.45827 1.875 0.874939C2.45833 0.291606 3.16667 -6.10352e-05 4 -6.10352e-05H8C8.38333 -6.10352e-05 8.74167 0.0707723 9.075 0.212439C9.40833 0.354106 9.71667 0.549939 10 0.799939C10.2833 0.549939 10.5917 0.354106 10.925 0.212439C11.2583 0.0707723 11.6167 -6.10352e-05 12 -6.10352e-05H16C16.8333 -6.10352e-05 17.5417 0.291606 18.125 0.874939C18.7083 1.45827 19 2.16661 19 2.99994V5.79994C19.3 6.08327 19.5417 6.40827 19.725 6.77494C19.9083 7.14161 20 7.54994 20 7.99994V13.9999H18V11.9999H2V13.9999H0V13.9999M11 4.99994H17V2.99994C17 2.71661 16.9042 2.47911 16.7125 2.28744C16.5208 2.09577 16.2833 1.99994 16 1.99994H12C11.7167 1.99994 11.4792 2.09577 11.2875 2.28744C11.0958 2.47911 11 2.71661 11 2.99994V4.99994V4.99994M3 4.99994H9V2.99994C9 2.71661 8.90417 2.47911 8.7125 2.28744C8.52083 2.09577 8.28333 1.99994 8 1.99994H4C3.71667 1.99994 3.47917 2.09577 3.2875 2.28744C3.09583 2.47911 3 2.71661 3 2.99994V4.99994V4.99994M2 9.99994H18V7.99994C18 7.71661 17.9042 7.47911 17.7125 7.28744C17.5208 7.09577 17.2833 6.99994 17 6.99994H3C2.71667 6.99994 2.47917 7.09577 2.2875 7.28744C2.09583 7.47911 2 7.71661 2 7.99994V9.99994V9.99994M18 9.99994V9.99994H2V9.99994C2 9.99994 2.09583 9.99994 2.2875 9.99994C2.47917 9.99994 2.71667 9.99994 3 9.99994H17C17.2833 9.99994 17.5208 9.99994 17.7125 9.99994C17.9042 9.99994 18 9.99994 18 9.99994V9.99994" fill="#785A00"/>
</svg>
