<svg width="56" height="56" viewBox="0 0 56 56" fill="none" xmlns="http://www.w3.org/2000/svg">
<path d="M25.6665 18.6665H30.3332C36.9328 18.6665 40.2326 18.6665 42.2829 20.7168C44.3332 22.767 44.3332 26.0669 44.3332 32.6665C44.3332 39.2661 44.3332 42.5659 42.2829 44.6162C40.2326 46.6665 36.9328 46.6665 30.3332 46.6665H27.9998C27.9998 46.6665 26.8332 51.3332 18.6665 51.3332C18.6665 51.3332 20.9998 48.9795 20.9998 46.6261C17.3751 46.5169 15.2131 46.1126 13.7168 44.6162C11.6665 42.5659 11.6665 39.2661 11.6665 32.6665C11.6665 26.0669 11.6665 22.767 13.7168 20.7168C15.767 18.6665 19.0668 18.6665 25.6665 18.6665Z" stroke="#281240" stroke-width="3" stroke-linejoin="round"/>
<path d="M44.3335 26.8335H45.5002C47.6809 26.8335 48.7713 26.8335 49.5835 27.3025C50.1155 27.6096 50.5574 28.0515 50.8645 28.5835C51.3335 29.3957 51.3335 30.4861 51.3335 32.6668C51.3335 34.8476 51.3335 35.9379 50.8645 36.7502C50.5574 37.2822 50.1155 37.7241 49.5835 38.0312C48.7713 38.5002 47.6809 38.5002 45.5002 38.5002H44.3335" stroke="#281240" stroke-width="3" stroke-linejoin="round"/>
<path d="M11.6665 26.8335H10.4998C8.31906 26.8335 7.22869 26.8335 6.4165 27.3025C5.88443 27.6096 5.44259 28.0515 5.13541 28.5835C4.6665 29.3957 4.6665 30.4861 4.6665 32.6668C4.6665 34.8476 4.6665 35.9379 5.13541 36.7502C5.44259 37.2822 5.88443 37.7241 6.4165 38.0312C7.22869 38.5002 8.31906 38.5002 10.4998 38.5002H11.6665" stroke="#281240" stroke-width="3" stroke-linejoin="round"/>
<path d="M31.5 8.1665C31.5 10.0995 29.9329 11.6665 28 11.6665C26.0671 11.6665 24.5 10.0995 24.5 8.1665C24.5 6.2335 26.0671 4.6665 28 4.6665C29.9329 4.6665 31.5 6.2335 31.5 8.1665Z" stroke="#281240" stroke-width="3"/>
<path d="M28 11.6665V18.6665" stroke="#281240" stroke-width="3" stroke-linecap="round" stroke-linejoin="round"/>
<path d="M21 28V30.3333M35 28V30.3333" stroke="#281240" stroke-width="3" stroke-linecap="round" stroke-linejoin="round"/>
<path d="M23.3335 38.5C23.3335 38.5 24.8891 39.6667 28.0002 39.6667C31.1112 39.6667 32.6668 38.5 32.6668 38.5" stroke="#281240" stroke-width="3" stroke-linecap="round"/>
</svg>
