<svg width="16" height="16" viewBox="0 0 16 16" fill="none" xmlns="http://www.w3.org/2000/svg">
<path d="M6.49226 2.39974C6.06571 2.8263 5.64301 3.02433 5.03488 3.02433C4.5039 3.02433 3.74845 2.92135 3.3335 3.33979C2.92183 3.75492 3.02435 4.50727 3.02435 5.03487C3.02435 5.64301 2.8263 6.06571 2.39973 6.49227C1.68891 7.20309 1.3335 7.5585 1.3335 8.00015C1.33351 8.44179 1.68892 8.79724 2.39975 9.50805C2.8776 9.98589 3.02435 10.2944 3.02435 10.9654C3.02435 11.4964 2.92137 12.2519 3.33982 12.6668C3.75495 13.0785 4.50728 12.976 5.03487 12.976C5.68249 12.976 5.99435 13.1026 6.45654 13.5648C6.85011 13.9584 7.37769 14.6668 8.00018 14.6668C8.62265 14.6668 9.15023 13.9584 9.54378 13.5648C10.006 13.1026 10.3178 12.976 10.9655 12.976C11.493 12.976 12.2454 13.0785 12.6605 12.6668C13.079 12.2519 12.976 11.4964 12.976 10.9654C12.976 10.2944 13.1227 9.98588 13.6006 9.50805C14.3114 8.79724 14.6668 8.44179 14.6668 8.00015C14.6668 7.5585 14.3114 7.20309 13.6006 6.49227C13.1227 6.01441 12.976 5.70588 12.976 5.03487C12.976 4.50389 13.079 3.74845 12.6605 3.3335C12.2454 2.92181 11.493 3.02433 10.9654 3.02433C10.3571 3.02433 9.93453 2.82621 9.50806 2.39974C8.79723 1.68891 8.44182 1.3335 8.00016 1.3335C7.55851 1.3335 7.20309 1.68891 6.49226 2.39974Z" fill="#D6A850"/>
<path d="M12.6605 12.6668H12.6668M12.6605 12.6668C12.2454 13.0785 11.493 12.976 10.9655 12.976C10.3178 12.976 10.006 13.1026 9.54378 13.5648C9.15023 13.9584 8.62265 14.6668 8.00018 14.6668C7.37769 14.6668 6.85011 13.9584 6.45654 13.5648C5.99435 13.1026 5.68249 12.976 5.03487 12.976C4.50728 12.976 3.75495 13.0785 3.33982 12.6668C2.92137 12.2519 3.02435 11.4964 3.02435 10.9654C3.02435 10.2944 2.8776 9.98589 2.39975 9.50805C1.68892 8.79724 1.33351 8.44179 1.3335 8.00015C1.3335 7.5585 1.68891 7.20309 2.39973 6.49227C2.8263 6.06571 3.02435 5.64301 3.02435 5.03487C3.02435 4.50727 2.92183 3.75492 3.3335 3.33979C3.74845 2.92135 4.5039 3.02433 5.03488 3.02433C5.64301 3.02433 6.06571 2.8263 6.49226 2.39974C7.20309 1.68891 7.55851 1.3335 8.00016 1.3335C8.44182 1.3335 8.79723 1.68891 9.50806 2.39974C9.93453 2.82621 10.3571 3.02433 10.9654 3.02433C11.493 3.02433 12.2454 2.92181 12.6605 3.3335C13.079 3.74845 12.976 4.50389 12.976 5.03487C12.976 5.70588 13.1227 6.01441 13.6006 6.49227C14.3114 7.20309 14.6668 7.5585 14.6668 8.00015C14.6668 8.44179 14.3114 8.79724 13.6006 9.50805C13.1227 9.98588 12.976 10.2944 12.976 10.9654C12.976 11.4964 13.079 12.2519 12.6605 12.6668Z" stroke="white"/>
<path d="M6 8.5954L7.2 9.66683L10 6.3335" stroke="white" stroke-linecap="round" stroke-linejoin="round"/>
</svg>
