<svg width="37" height="37" viewBox="0 0 37 37" fill="none" xmlns="http://www.w3.org/2000/svg">
<path d="M27.7507 23.125H24.6673V26.2083H27.7507M27.7507 16.9583H24.6673V20.0417H27.7507M30.834 29.2917H18.5007V26.2083H21.584V23.125H18.5007V20.0417H21.584V16.9583H18.5007V13.875H30.834M15.4173 10.7917H12.334V7.70833H15.4173M15.4173 16.9583H12.334V13.875H15.4173M15.4173 23.125H12.334V20.0417H15.4173M15.4173 29.2917H12.334V26.2083H15.4173M9.25065 10.7917H6.16732V7.70833H9.25065M9.25065 16.9583H6.16732V13.875H9.25065M9.25065 23.125H6.16732V20.0417H9.25065M9.25065 29.2917H6.16732V26.2083H9.25065M18.5007 10.7917V4.625H3.08398V32.375H33.9173V10.7917H18.5007Z" fill="#D9AB54"/>
</svg>
