<svg width="16" height="16" viewBox="0 0 16 16" fill="none" xmlns="http://www.w3.org/2000/svg">
<path d="M1.33398 5.33333C1.33398 6.22785 6.73809 8.66667 8.00065 8.66667C9.26321 8.66667 14.6673 6.22785 14.6673 5.33333C14.6673 4.43881 9.26321 2 8.00065 2C6.7381 2 1.33398 4.43881 1.33398 5.33333Z" stroke="#1C2542" stroke-linecap="round" stroke-linejoin="round"/>
<path d="M4 7.3335L4.83522 11.1997C4.89243 11.4645 5.02449 11.7119 5.24471 11.8698C6.72775 12.9325 9.27225 12.9325 10.7553 11.8698C10.9755 11.7119 11.1076 11.4645 11.1648 11.1997L12 7.3335" stroke="#1C2542" stroke-linecap="round" stroke-linejoin="round"/>
<path d="M14.168 6.3335C14.168 6.05735 13.9441 5.8335 13.668 5.8335C13.3918 5.8335 13.168 6.05735 13.168 6.3335H13.668H14.168ZM12.7156 13.1758L13.202 13.2913L12.7156 13.1758ZM14.6204 13.1758L15.1068 13.0602L14.6204 13.1758ZM13.668 6.3335H13.168V11.005H13.668H14.168V6.3335H13.668ZM12.7156 13.1758L13.202 13.2913C13.2986 12.8848 13.4647 12.5133 13.6425 12.1654C13.8054 11.8466 14.0188 11.4778 14.133 11.1886L13.668 11.005L13.2029 10.8213C13.1116 11.0524 12.9589 11.3055 12.7521 11.7104C12.5601 12.086 12.3528 12.5398 12.2291 13.0602L12.7156 13.1758ZM14.6204 13.1758L15.1068 13.0602C14.9832 12.5398 14.7759 12.086 14.5839 11.7104C14.377 11.3055 14.2243 11.0524 14.133 10.8213L13.668 11.005L13.2029 11.1886C13.3171 11.4778 13.5305 11.8466 13.6934 12.1654C13.8712 12.5133 14.0373 12.8848 14.1339 13.2913L14.6204 13.1758ZM13.8783 14.0002V13.5002H13.4577V14.0002V14.5002H13.8783V14.0002ZM12.7156 13.1758L12.2291 13.0602C12.1469 13.4065 12.0975 13.8644 12.4236 14.1915C12.5764 14.3447 12.7647 14.4167 12.9306 14.4534C13.0959 14.4901 13.2773 14.5002 13.4577 14.5002V14.0002V13.5002C13.3055 13.5002 13.208 13.4907 13.1471 13.4772C13.0866 13.4638 13.1013 13.4549 13.1318 13.4855C13.1702 13.524 13.1708 13.56 13.1689 13.5398C13.1659 13.5085 13.1682 13.4338 13.202 13.2913L12.7156 13.1758ZM14.6204 13.1758L14.1339 13.2913C14.1677 13.4338 14.17 13.5085 14.1671 13.5398C14.1652 13.56 14.1657 13.524 14.2042 13.4855C14.2347 13.4549 14.2493 13.4638 14.1889 13.4772C14.1279 13.4907 14.0304 13.5002 13.8783 13.5002V14.0002V14.5002C14.0586 14.5002 14.2401 14.4901 14.4054 14.4534C14.5712 14.4167 14.7596 14.3447 14.9123 14.1915C15.2384 13.8644 15.1891 13.4065 15.1068 13.0602L14.6204 13.1758Z" fill="#1C2542"/>
</svg>
