<svg width="24" height="24" viewBox="0 0 24 24" fill="none" xmlns="http://www.w3.org/2000/svg">
<g clip-path="url(#clip0_1_1719)">
<path d="M23.9874 12.2242C23.9874 11.2409 23.9057 10.5234 23.729 9.7793H12.2391V14.2173H18.9834C18.8475 15.3202 18.1132 16.9811 16.4815 18.0972L16.4586 18.2458L20.0915 20.996L20.3432 21.0205C22.6548 18.9344 23.9874 15.8649 23.9874 12.2242" fill="#4285F4"/>
<path d="M12.2379 23.9174C15.5421 23.9174 18.316 22.8544 20.3421 21.0208L16.4804 18.0974C15.447 18.8017 14.06 19.2933 12.2379 19.2933C9.00175 19.2933 6.25506 17.2072 5.27595 14.3239L5.13243 14.3358L1.35488 17.1926L1.30548 17.3268C3.3179 21.2333 7.45157 23.9174 12.2379 23.9174Z" fill="#34A853"/>
<path d="M5.27812 14.3236C5.01977 13.5795 4.87026 12.7822 4.87026 11.9584C4.87026 11.1345 5.01977 10.3373 5.26453 9.59317L5.25768 9.4347L1.4328 6.53198L1.30765 6.59015C0.478239 8.21125 0.00231934 10.0317 0.00231934 11.9584C0.00231934 13.8851 0.478239 15.7054 1.30765 17.3265L5.27812 14.3236" fill="#FBBC05"/>
<path d="M12.2379 4.62403C14.5359 4.62403 16.086 5.59402 16.9699 6.40461L20.4236 3.10928C18.3025 1.1826 15.5421 0 12.2379 0C7.45157 0 3.3179 2.68406 1.30548 6.59057L5.26235 9.59359C6.25506 6.7102 9.00175 4.62403 12.2379 4.62403" fill="#EB4335"/>
</g>
<defs>
<clipPath id="clip0_1_1719">
<rect width="24" height="24" fill="white"/>
</clipPath>
</defs>
</svg>
