<svg width="48" height="48" viewBox="0 0 48 48" fill="none" xmlns="http://www.w3.org/2000/svg">
<path d="M22.013 42H19.2109C12.0404 42 8.45518 42 6.22758 39.7302C4 37.4602 4 33.8068 4 26.5C4 19.1932 4 15.5398 6.22758 13.2699C8.45518 11 12.0404 11 19.2109 11H26.8164C33.9868 11 37.5722 11 39.7998 13.2699C41.5136 15.0164 41.9088 17.5818 42 22" stroke="#281240" stroke-width="3" stroke-linecap="round"/>
<path d="M40.0333 40.0466L43.9995 44M42.1055 35.053C42.1055 31.1578 38.9477 28 35.0525 28C31.1571 28 27.9995 31.1578 27.9995 35.053C27.9995 38.9484 31.1571 42.1062 35.0525 42.1062C38.9477 42.1062 42.1055 38.9484 42.1055 35.053Z" stroke="#281240" stroke-width="3" stroke-linecap="round" stroke-linejoin="round"/>
<path d="M31.9996 11L31.8008 10.3819C30.8108 7.30178 30.3158 5.76174 29.1372 4.88086C27.9588 4 26.3934 4 23.2626 4H22.7364C19.6056 4 18.0402 4 16.8617 4.88086C15.6832 5.76174 15.1882 7.30178 14.1982 10.3819L13.9995 11" stroke="#281240" stroke-width="3"/>
</svg>
