<svg width="20" height="20" viewBox="0 0 20 20" fill="none" xmlns="http://www.w3.org/2000/svg">
<g clip-path="url(#clip0_1_1252)">
<path d="M18.88 5.38875L18.815 5.4175C17.3575 6.06625 15.8437 6.5375 14.2912 6.8475C14.7298 8.92848 14.7289 11.0781 14.2887 13.1588C15.8412 13.4675 17.3625 13.935 18.8137 14.5813L18.8775 14.61C19.5912 13.2287 20 11.6637 20 10C20 8.33625 19.5912 6.77125 18.88 5.38875ZM7.27 14.1862C7.8225 15.945 8.73375 17.6112 9.99875 19.0837C11.2638 17.6112 12.1763 15.945 12.7275 14.1862C10.9163 13.9462 9.08125 13.9475 7.27 14.1862ZM13.0525 7.0425C12.0475 7.18375 11.0325 7.28 10 7.28C8.96625 7.28 7.95125 7.1825 6.94625 7.0425C6.525 8.995 6.525 11.015 6.94875 12.9675C8.97278 12.6862 11.026 12.6862 13.05 12.9675C13.4739 11.0153 13.4748 8.99502 13.0525 7.0425ZM9.99875 0.91625C8.73375 2.38875 7.8225 4.055 7.27 5.815C9.08133 6.05375 10.9162 6.05375 12.7275 5.815C12.175 4.05625 11.2638 2.38875 9.99875 0.91625ZM10.8612 0C12.3288 1.68 13.3738 3.59625 13.9813 5.62C15.4388 5.335 16.8663 4.90125 18.2288 4.3C16.5788 1.90125 13.9163 0.2625 10.8612 0ZM1.77 4.3C3.13375 4.9 4.56125 5.335 6.0175 5.62C6.625 3.59625 7.67 1.68 9.1375 0C6.0825 0.2625 3.42125 1.90125 1.77 4.3ZM5.70875 6.84875C4.15625 6.5375 2.64375 6.0675 1.1875 5.41875L1.1225 5.39C0.40875 6.77125 0 8.33625 0 10C0 11.6637 0.40875 13.2288 1.1225 14.6112L1.1875 14.5825C2.6375 13.935 4.15875 13.4675 5.71125 13.16C5.27 11.08 5.27 8.93 5.70875 6.84875ZM6.0175 14.3813C4.56 14.665 3.1325 15.1 1.77 15.7C3.42125 18.0988 6.0825 19.7375 9.1375 20C7.67 18.32 6.625 16.4037 6.0175 14.3813ZM13.9813 14.38C13.375 16.4037 12.3288 18.32 10.8612 20C13.9163 19.7375 16.5788 18.0988 18.2288 15.7C16.8663 15.0988 15.4388 14.665 13.9813 14.38Z" fill="#D6A850"/>
</g>
<defs>
<clipPath id="clip0_1_1252">
<rect width="20" height="20" fill="white"/>
</clipPath>
</defs>
</svg>
