<svg width="24" height="24" viewBox="0 0 24 24" fill="none" xmlns="http://www.w3.org/2000/svg">
<path d="M4.34412 15.4308L2.07434 19.9697C2.0207 20.0769 1.99535 20.1961 2.0007 20.3159C2.00605 20.4357 2.04192 20.5521 2.1049 20.6541C2.16795 20.756 2.25598 20.8401 2.36064 20.8984C2.4653 20.9567 2.58312 20.9874 2.70293 20.9874H6.1173L8.16588 23.7188C8.29901 23.8969 8.50793 24 8.72782 24C9.01985 24 9.25005 23.8257 9.35698 23.6114L11.4959 19.3336C8.60407 19.057 6.05449 17.5908 4.34412 15.4308ZM22.9132 19.9697L20.6434 15.4308C18.933 17.5908 16.3834 19.0571 13.4917 19.3336L15.6307 23.6115C15.7375 23.8257 15.9677 24 16.2597 24C16.4796 24 16.6887 23.8969 16.8218 23.7188L18.8703 20.9873H22.2846C22.5283 20.9873 22.7543 20.8613 22.8826 20.6541C23.0106 20.4468 23.0223 20.1877 22.9132 19.9697ZM13.6706 6.92086L12.4938 5.04089L11.3173 6.92086C11.2208 7.075 11.0684 7.18577 10.8919 7.22991L8.74066 7.76803L10.1649 9.468C10.2817 9.60739 10.3399 9.78664 10.3272 9.96807L10.174 12.1804L12.2308 11.3513C12.3286 11.3119 12.5285 11.2594 12.7565 11.3513L14.8135 12.1804L14.6605 9.96807C14.648 9.78662 14.7063 9.6074 14.8231 9.468L16.2472 7.76808L14.0959 7.22996C13.9195 7.18579 13.7671 7.07501 13.6706 6.92086Z" fill="url(#paint0_linear_1_1169)"/>
<path d="M21.4815 8.98753C21.4815 4.03181 17.4496 0 12.4939 0C7.53816 0 3.50635 4.03181 3.50635 8.98753C3.50635 13.9432 7.53816 17.9751 12.4939 17.9751C17.4496 17.9751 21.4815 13.9433 21.4815 8.98753ZM18.0467 7.81003L16.0831 10.1538L16.2941 13.2039C16.3023 13.3228 16.2802 13.4418 16.2298 13.5498C16.1794 13.6578 16.1024 13.7512 16.006 13.8213C15.9096 13.8913 15.797 13.9357 15.6787 13.9503C15.5604 13.9648 15.4404 13.9492 15.3298 13.9047L12.4939 12.7615L9.65794 13.9047C9.582 13.9352 9.27928 14.0374 8.98172 13.8213C8.88536 13.7512 8.80838 13.6578 8.75801 13.5498C8.70763 13.4418 8.68551 13.3228 8.69372 13.2039L8.90504 10.1538L6.94144 7.81017C6.86488 7.71882 6.8128 7.60951 6.79009 7.4925C6.76738 7.37549 6.77479 7.25463 6.81162 7.14128C6.84845 7.02792 6.91349 6.92578 7.00063 6.84447C7.08777 6.76315 7.19415 6.70532 7.30979 6.67641L10.2758 5.93447L11.8979 3.34261C11.9611 3.24162 12.049 3.15835 12.1532 3.10064C12.2575 3.04292 12.3747 3.01264 12.4939 3.01264C12.613 3.01264 12.7303 3.04292 12.8345 3.10064C12.9388 3.15835 13.0266 3.24162 13.0899 3.34261L14.7124 5.93447L17.6783 6.67641C17.794 6.70533 17.9004 6.76318 17.9875 6.8445C18.0747 6.92582 18.1397 7.02795 18.1766 7.14131C18.2134 7.25464 18.2208 7.37546 18.1981 7.49243C18.1754 7.6094 18.1233 7.71873 18.0467 7.81003Z" fill="url(#paint1_linear_1_1169)"/>
<defs>
<linearGradient id="paint0_linear_1_1169" x1="12.4938" y1="5.04089" x2="12.4938" y2="24" gradientUnits="userSpaceOnUse">
<stop stop-color="#EEBF65"/>
<stop offset="1" stop-color="#EEBA08"/>
</linearGradient>
<linearGradient id="paint1_linear_1_1169" x1="12.4939" y1="0" x2="12.4939" y2="17.9751" gradientUnits="userSpaceOnUse">
<stop stop-color="#EEBF65"/>
<stop offset="1" stop-color="#EEBA08"/>
</linearGradient>
</defs>
</svg>
