<svg width="14" height="14" viewBox="0 0 14 14" fill="none" xmlns="http://www.w3.org/2000/svg">
<path d="M4.08203 10.5C3.01516 10.7401 2.33203 11.1092 2.33203 11.523C2.33203 12.2467 4.42137 12.8333 6.9987 12.8333C9.57603 12.8333 11.6654 12.2467 11.6654 11.523C11.6654 11.1092 10.9822 10.7401 9.91536 10.5" stroke="#1C2542" stroke-linecap="round"/>
<path d="M8.45768 5.25002C8.45768 6.05544 7.80476 6.70835 6.99935 6.70835C6.19393 6.70835 5.54102 6.05544 5.54102 5.25002C5.54102 4.44461 6.19393 3.79169 6.99935 3.79169C7.80476 3.79169 8.45768 4.44461 8.45768 5.25002Z" stroke="#1C2542"/>
<path d="M7.73283 10.2046C7.53609 10.3941 7.27312 10.5 6.99944 10.5C6.72576 10.5 6.46279 10.3941 6.26604 10.2046C4.46436 8.45881 2.04988 6.50858 3.22735 3.6772C3.86399 2.14629 5.39223 1.16669 6.99944 1.16669C8.60664 1.16669 10.1349 2.14629 10.7715 3.6772C11.9475 6.50501 9.53897 8.46483 7.73283 10.2046Z" stroke="#1C2542"/>
</svg>
