<svg width="17" height="16" viewBox="0 0 17 16" fill="none" xmlns="http://www.w3.org/2000/svg">
<path fill-rule="evenodd" clip-rule="evenodd" d="M17 3.56074C17 4.29635 16.5445 4.89631 15.986 4.89631C15.9224 4.89631 15.8602 4.88814 15.7998 4.87327L14.7158 12.5117C14.7036 12.5113 14.6914 12.5111 14.6792 12.5111H2.32073C2.30849 12.5111 2.29629 12.5113 2.28413 12.5117L1.2002 4.87327C1.13976 4.88814 1.07758 4.89631 1.01396 4.89631C0.455488 4.89631 0 4.29635 0 3.56074C0 2.82514 0.455488 2.22518 1.01396 2.22518C1.57243 2.22518 2.02792 2.82514 2.02792 3.56074C2.02805 3.85107 1.95595 4.13346 1.82263 4.36467L4.86598 7.39004L8.09126 2.97183C7.65009 2.75293 7.33472 2.19099 7.33472 1.5349C7.33472 0.689527 7.85817 0 8.50002 0C9.14186 0 9.66528 0.689478 9.66528 1.5349C9.66528 2.19099 9.34991 2.75293 8.9087 2.97183L12.134 7.38999L15.1773 4.36462C15.044 4.13341 14.9719 3.85102 14.972 3.56069C14.972 2.82509 15.4275 2.22513 15.986 2.22513C16.5445 2.22513 17 2.82509 17 3.56069L17 3.56074ZM14.6792 14.0039H2.32073C2.04571 14.0039 1.82067 14.3003 1.82067 14.6625V15.3413C1.82067 15.7036 2.04571 16 2.32073 16H14.6792C14.9543 16 15.1793 15.7036 15.1793 15.3413V14.6625C15.1793 14.3002 14.9542 14.0039 14.6792 14.0039Z" fill="url(#paint0_linear_1_1215)"/>
<defs>
<linearGradient id="paint0_linear_1_1215" x1="8.5" y1="0" x2="8.5" y2="16" gradientUnits="userSpaceOnUse">
<stop stop-color="#EEBF65"/>
<stop offset="1" stop-color="#EEBA08"/>
</linearGradient>
</defs>
</svg>
