<svg width="56" height="56" viewBox="0 0 56 56" fill="none" xmlns="http://www.w3.org/2000/svg">
<g clip-path="url(#clip0_331_8840)">
<path d="M56.0001 33.8332C56.0001 46.7342 49.9731 51.3332 44.3334 51.3332H44.3218C37.3334 51.3332 35.0001 43.1666 35.0001 39.6666C36.7781 41.7806 39.6668 46.6666 44.3171 46.6666H44.3334C48.6524 46.6666 51.3334 41.7479 51.3334 33.8332C51.3334 25.4986 47.7261 20.9999 44.3334 20.9999C41.6548 20.9999 40.6374 22.5189 38.9294 25.4309C37.7068 27.5169 36.3184 29.8806 33.7541 31.2292C31.6004 32.3632 29.5681 32.6059 26.7518 32.6549C29.0612 35.2184 30.3381 38.5472 30.3358 41.9976C30.3358 49.7186 24.0568 55.9976 16.3358 55.9976H12.8358C5.57675 55.4866 -0.177246 49.3849 -0.177246 41.9976V40.5182C2.54575 45.8522 7.49476 51.3309 13.8134 51.3309H16.3358C21.4831 51.3309 25.6691 47.1449 25.6691 41.9976C25.6691 36.8502 21.4831 32.6642 16.3358 32.6642H14.0024V27.9976H16.4198C20.2791 27.9976 23.4198 24.8569 23.4198 20.9976C23.4198 17.1382 20.2791 13.9976 16.4198 13.9976C12.9898 13.9976 8.72675 17.3762 7.37342 18.6782L4.13009 15.3229C4.76242 14.7092 10.4908 9.33322 16.4198 9.33322C22.8528 9.33322 28.0864 14.5669 28.0864 20.9999C28.0777 23.5348 27.2348 25.9964 25.6878 28.0046C28.5601 28.0046 30.0931 27.8832 31.5818 27.1016C32.9678 26.3736 33.9081 24.7682 34.9068 23.0672C36.6684 20.0666 38.8594 16.3309 44.3358 16.3309C50.1318 16.3309 56.0024 22.3416 56.0024 33.8309L56.0001 33.8332ZM35.0001 13.9999C38.0684 13.9999 40.8731 12.9242 43.3418 10.7986L40.1194 6.76889C37.9899 8.42934 35.3671 9.33176 32.6668 9.33322C31.5164 9.33322 26.8334 9.33323 24.5001 6.99989C26.8334 11.6666 31.0451 13.9999 35.0001 13.9999ZM33.8334 6.99989C34.2932 6.99974 34.7485 6.90903 35.1732 6.73293C35.5979 6.55684 35.9838 6.29882 36.3088 5.9736C36.6338 5.64838 36.8916 5.26233 37.0674 4.83749C37.2432 4.41265 37.3336 3.95734 37.3334 3.49756C37.3333 3.03778 37.2426 2.58253 37.0665 2.15781C36.8904 1.73309 36.6324 1.34721 36.3071 1.0222C35.9819 0.697197 35.5959 0.439431 35.171 0.263623C34.7462 0.0878142 34.2909 -0.00259443 33.8311 -0.00244121C32.9025 -0.00213178 32.0121 0.367037 31.3557 1.02385C30.6994 1.68067 30.3308 2.57132 30.3311 3.49989C30.3314 4.42846 30.7006 5.31887 31.3574 5.97525C32.0142 6.63163 32.9049 7.0002 33.8334 6.99989Z" fill="#281240"/>
</g>
<defs>
<clipPath id="clip0_331_8840">
<rect width="56" height="56" fill="white"/>
</clipPath>
</defs>
</svg>
