<svg width="36" height="36" viewBox="0 0 36 36" fill="none" xmlns="http://www.w3.org/2000/svg">
<g filter="url(#filter0_d_176_4308)">
<circle cx="18" cy="14" r="12" fill="#FBF6EE"/>
<circle cx="18" cy="14" r="11.5" stroke="#D6A850"/>
</g>
<path fill-rule="evenodd" clip-rule="evenodd" d="M25 11.0029C25 11.4167 24.6517 11.7542 24.2246 11.7542C24.176 11.7542 24.1284 11.7496 24.0822 11.7412L23.2533 16.0378C23.2439 16.0376 23.2346 16.0375 23.2253 16.0375H13.7747C13.7653 16.0375 13.756 16.0376 13.7467 16.0378L12.9178 11.7412C12.8716 11.7496 12.824 11.7542 12.7754 11.7542C12.3483 11.7542 12 11.4167 12 11.0029C12 10.5891 12.3483 10.2517 12.7754 10.2517C13.2024 10.2517 13.5508 10.5891 13.5508 11.0029C13.5509 11.1662 13.4957 11.3251 13.3938 11.4551L15.721 13.1569L18.1874 10.6717C17.8501 10.5485 17.6089 10.2324 17.6089 9.86338C17.6089 9.38786 18.0092 9 18.5 9C18.9908 9 19.3911 9.38783 19.3911 9.86338C19.3911 10.2324 19.1499 10.5485 18.8125 10.6717L21.2789 13.1569L23.6062 11.4551C23.5042 11.325 23.4491 11.1662 23.4492 11.0029C23.4492 10.5891 23.7975 10.2516 24.2246 10.2516C24.6517 10.2516 25 10.5891 25 11.0029L25 11.0029ZM23.2253 16.8772H13.7747C13.5644 16.8772 13.3923 17.0439 13.3923 17.2477V17.6295C13.3923 17.8333 13.5644 18 13.7747 18H23.2253C23.4356 18 23.6077 17.8333 23.6077 17.6295V17.2477C23.6077 17.0439 23.4356 16.8772 23.2253 16.8772Z" fill="url(#paint0_linear_176_4308)"/>
<defs>
<filter id="filter0_d_176_4308" x="0" y="0" width="36" height="36" filterUnits="userSpaceOnUse" color-interpolation-filters="sRGB">
<feFlood flood-opacity="0" result="BackgroundImageFix"/>
<feColorMatrix in="SourceAlpha" type="matrix" values="0 0 0 0 0 0 0 0 0 0 0 0 0 0 0 0 0 0 127 0" result="hardAlpha"/>
<feOffset dy="4"/>
<feGaussianBlur stdDeviation="3"/>
<feComposite in2="hardAlpha" operator="out"/>
<feColorMatrix type="matrix" values="0 0 0 0 0.639423 0 0 0 0 0.639423 0 0 0 0 0.639423 0 0 0 0.11 0"/>
<feBlend mode="normal" in2="BackgroundImageFix" result="effect1_dropShadow_176_4308"/>
<feBlend mode="normal" in="SourceGraphic" in2="effect1_dropShadow_176_4308" result="shape"/>
</filter>
<linearGradient id="paint0_linear_176_4308" x1="15.102" y1="18.7995" x2="20.9675" y2="8.31382" gradientUnits="userSpaceOnUse">
<stop stop-color="#FF6100"/>
<stop offset="1" stop-color="#FDB82E"/>
</linearGradient>
</defs>
</svg>
