<svg width="20" height="20" viewBox="0 0 20 20" fill="none" xmlns="http://www.w3.org/2000/svg">
<path d="M16.8183 3.48572C15.7011 3.36676 14.6014 3.11815 13.5417 2.74488C12.5692 2.4012 11.6363 1.95419 10.7592 1.41155C10.5303 1.27266 10.2677 1.19922 10 1.19922C9.73229 1.19922 9.4697 1.27266 9.24083 1.41155L9.24 1.41238C8.36301 1.95459 7.43047 2.40131 6.45833 2.74488C5.39909 3.11799 4.30003 3.36661 3.18333 3.48572C2.82462 3.52225 2.49222 3.6906 2.25052 3.95817C2.00881 4.22573 1.875 4.57348 1.875 4.93405V9.26322C1.87561 10.8607 2.30315 12.429 3.11337 13.8058C3.9236 15.1826 5.08706 16.3179 6.48333 17.094L9.29167 18.6549C9.50793 18.7765 9.75188 18.8404 10 18.8404C10.2481 18.8404 10.4921 18.7765 10.7083 18.6549L13.5167 17.094C14.9129 16.3179 16.0764 15.1826 16.8866 13.8058C17.6969 12.429 18.1244 10.8607 18.125 9.26322V4.93488C18.1255 4.57428 17.9921 4.22634 17.7507 3.95847C17.5093 3.69059 17.177 3.52266 16.8183 3.48572ZM13.3158 8.48738L10.1908 11.8207C10.0424 11.9791 9.83794 12.0732 9.62109 12.083C9.40425 12.0928 9.19215 12.0175 9.03 11.8732L7.155 10.2065C7.06906 10.1351 6.99837 10.0471 6.94713 9.94779C6.8959 9.84847 6.86516 9.73986 6.85675 9.62842C6.84834 9.51698 6.86244 9.40499 6.89819 9.29911C6.93395 9.19323 6.99064 9.09562 7.06488 9.01209C7.13913 8.92856 7.22942 8.86082 7.33038 8.8129C7.43134 8.76498 7.5409 8.73785 7.65256 8.73314C7.76422 8.72842 7.87568 8.74621 7.98032 8.78545C8.08496 8.82469 8.18064 8.88458 8.26167 8.96155L9.53083 10.089L12.1008 7.34738C12.1788 7.26443 12.2729 7.19828 12.3774 7.153C12.4819 7.10771 12.5945 7.08425 12.7083 7.08405C12.8709 7.08396 13.03 7.13143 13.1659 7.22061C13.3018 7.30979 13.4087 7.43678 13.4734 7.58594C13.538 7.7351 13.5576 7.89992 13.5298 8.06009C13.5019 8.22026 13.427 8.36879 13.3158 8.48738Z" fill="#D6A850"/>
</svg>
