<svg width="20" height="20" viewBox="0 0 20 20" fill="none" xmlns="http://www.w3.org/2000/svg">
<g clip-path="url(#clip0_1_1207)">
<path d="M10 20C10.864 20 11.61 19.4871 11.9508 18.75H8.04923C8.39005 19.4871 9.13606 20 10 20ZM9.41411 14.8438V10.1052C8.07849 9.8693 7.07037 8.84341 7.07037 7.61724C7.07037 7.29365 7.33271 7.03131 7.6563 7.03131C7.9799 7.03131 8.24224 7.29365 8.24224 7.61724C8.24224 8.21134 8.73212 8.7179 9.41411 8.90602V0.400567C9.00611 0.138965 8.53159 -2.78271e-05 8.04693 0.000100186C6.81471 0.000100186 5.76362 0.889822 5.54952 2.09063C4.13847 2.50329 3.16414 3.79387 3.16414 5.27351C3.16414 6.06467 3.44422 6.82076 3.95648 7.42193C3.44426 8.0231 3.16414 8.77919 3.16414 9.57036C3.16414 11.05 4.13847 12.3406 5.54952 12.7532C5.76358 13.954 6.81471 14.8438 8.04693 14.8438H9.41411ZM7.07037 16.6016C7.07037 17.1409 7.50759 17.5781 8.04693 17.5781H11.9532C12.4925 17.5781 12.9297 17.1409 12.9297 16.6016V16.0156H7.07037V16.6016ZM14.4505 2.0906C14.2365 0.889822 13.1854 6.11235e-05 11.9531 6.11235e-05C11.4684 -6.68894e-05 10.9939 0.138926 10.5859 0.400528V4.73867C11.9216 4.97456 12.9297 6.00046 12.9297 7.22662C12.9297 7.55021 12.6673 7.81255 12.3437 7.81255C12.0201 7.81255 11.7578 7.55021 11.7578 7.22662C11.7578 6.63252 11.2679 6.12596 10.5859 5.93784V14.8438H11.9531C13.1853 14.8438 14.2365 13.954 14.4505 12.7532C15.8616 12.3406 16.8359 11.05 16.8359 9.57036C16.8359 8.77919 16.5558 8.0231 16.0436 7.42193C16.5558 6.82076 16.8359 6.06467 16.8359 5.27351C16.8359 3.79383 15.8616 2.50329 14.4505 2.0906ZM18.2427 3.32047C18.0534 3.32047 17.8675 3.22883 17.7546 3.05946C17.5751 2.7902 17.6479 2.42641 17.9171 2.24692L19.089 1.46568C19.3582 1.28611 19.7221 1.35892 19.9015 1.62818C20.081 1.89743 20.0083 2.26122 19.739 2.44071L18.5671 3.22196C18.4711 3.28621 18.3582 3.3205 18.2427 3.32047ZM19.4135 13.086C19.298 13.0861 19.185 13.0518 19.089 12.9876L17.9171 12.2063C17.6479 12.0268 17.5751 11.663 17.7546 11.3938C17.9341 11.1245 18.298 11.0518 18.5671 11.2313L19.739 12.0125C20.0083 12.192 20.081 12.5558 19.9015 12.8251C19.7887 12.9944 19.6028 13.086 19.4135 13.086ZM1.75735 3.32047C1.64182 3.32051 1.52888 3.28624 1.43286 3.222L0.260995 2.44075C-0.00826171 2.26126 -0.0810347 1.89747 0.0984564 1.62822C0.277987 1.35892 0.641813 1.28619 0.910991 1.46572L2.08286 2.24696C2.35212 2.42645 2.42489 2.79024 2.2454 3.0595C2.13251 3.22883 1.94669 3.32047 1.75735 3.32047ZM0.58654 13.086C0.397205 13.086 0.211385 12.9944 0.0984564 12.825C-0.0810347 12.5558 -0.00826171 12.192 0.260995 12.0125L1.43286 11.2312C1.70208 11.0517 2.06591 11.1245 2.2454 11.3937C2.42489 11.663 2.35212 12.0268 2.08286 12.2063L0.910991 12.9875C0.814989 13.0518 0.702062 13.0861 0.58654 13.086ZM1.7579 7.81255H0.586032C0.26244 7.81255 9.76052e-05 7.55021 9.76052e-05 7.22662C9.76052e-05 6.90303 0.26244 6.64069 0.586032 6.64069H1.7579C2.08149 6.64069 2.34383 6.90303 2.34383 7.22662C2.34383 7.55021 2.08149 7.81255 1.7579 7.81255ZM19.414 7.81255H18.2422C17.9186 7.81255 17.6562 7.55021 17.6562 7.22662C17.6562 6.90303 17.9186 6.64069 18.2422 6.64069H19.414C19.7376 6.64069 20 6.90303 20 7.22662C20 7.55021 19.7376 7.81255 19.414 7.81255Z" fill="url(#paint0_linear_1_1207)"/>
</g>
<defs>
<linearGradient id="paint0_linear_1_1207" x1="10" y1="6.10352e-05" x2="10" y2="20" gradientUnits="userSpaceOnUse">
<stop stop-color="#EEBF65"/>
<stop offset="1" stop-color="#EEBA08"/>
</linearGradient>
<clipPath id="clip0_1_1207">
<rect width="20" height="20" fill="white"/>
</clipPath>
</defs>
</svg>
