<svg width="32" height="32" viewBox="0 0 32 32" fill="none" xmlns="http://www.w3.org/2000/svg">
<path d="M19.65 19.5838C19.9273 19.3056 20.066 18.9776 20.066 18.5998C20.066 18.2221 19.9273 17.8945 19.65 17.6172C19.3727 17.3398 19.0447 17.2007 18.666 17.1998C18.2873 17.1989 17.9598 17.3381 17.6833 17.6172C17.4069 17.8963 17.2678 18.2238 17.266 18.5998C17.2642 18.9758 17.4033 19.3038 17.6833 19.5838C17.9633 19.8638 18.2909 20.0025 18.666 19.9998C19.0411 19.9972 19.3691 19.8585 19.65 19.5838ZM17.666 15.7332H19.666C19.666 15.0887 19.7327 14.6167 19.866 14.3172C19.9993 14.0176 20.3105 13.6229 20.7994 13.1332C21.466 12.4665 21.9105 11.9278 22.1327 11.5172C22.3549 11.1065 22.466 10.6229 22.466 10.0665C22.466 9.0665 22.1158 8.25006 21.4153 7.61717C20.7149 6.98428 19.7985 6.66739 18.666 6.6665C17.7549 6.6665 16.9607 6.92206 16.2833 7.43317C15.606 7.94428 15.1336 8.62206 14.866 9.4665L16.666 10.1998C16.866 9.64428 17.1385 9.22784 17.4833 8.9505C17.8282 8.67317 18.2225 8.53406 18.666 8.53317C19.1993 8.53317 19.6327 8.68339 19.966 8.98384C20.2993 9.28428 20.466 9.68961 20.466 10.1998C20.466 10.5109 20.3771 10.8056 20.1993 11.0838C20.0216 11.3621 19.7105 11.7118 19.266 12.1332C18.5327 12.7776 18.0829 13.2834 17.9167 13.6505C17.7505 14.0176 17.6669 14.7118 17.666 15.7332ZM10.666 23.9998C9.93268 23.9998 9.30513 23.7389 8.78335 23.2172C8.26157 22.6954 8.00024 22.0674 7.99935 21.3332V5.33317C7.99935 4.59984 8.26068 3.97228 8.78335 3.4505C9.30602 2.92873 9.93357 2.66739 10.666 2.6665H26.666C27.3993 2.6665 28.0273 2.92784 28.55 3.4505C29.0727 3.97317 29.3336 4.60073 29.3327 5.33317V21.3332C29.3327 22.0665 29.0718 22.6945 28.55 23.2172C28.0282 23.7398 27.4002 24.0007 26.666 23.9998H10.666ZM10.666 21.3332H26.666V5.33317H10.666V21.3332ZM5.33268 29.3332C4.59935 29.3332 3.97179 29.0723 3.45002 28.5505C2.92824 28.0287 2.6669 27.4007 2.66602 26.6665V7.99984H5.33268V26.6665H23.9993V29.3332H5.33268Z" fill="#EEBA08"/>
</svg>
