<svg width="85" height="85" viewBox="0 0 85 85" fill="none" xmlns="http://www.w3.org/2000/svg">
<circle cx="42.5" cy="42.5" r="42.5" fill="#D9D9D9"/>
<g clip-path="url(#clip0_47_746)">
<path d="M45.6201 17.6342L46.1246 17.8752C47.7797 19.1046 47.3596 21.3736 46.8891 23.0105L42.0382 38.9111C42.0382 38.9111 41.2356 42.7051 43.8573 39.5785L51.6832 26.0378C54.2927 22.0693 59.0235 25.5653 56.6467 29.4794L48.4912 43.5381C47.3693 45.7715 48.1526 46.0443 49.5197 44.863L60.5483 32.8847C61.8497 32.0348 62.3488 32.0742 63.8147 32.3156C64.1228 32.5226 64.4779 32.6725 64.7365 32.9374C66.3742 34.6081 65.3146 36.6563 63.8755 37.8992C51.6807 50.672 49.6879 52.7015 50.7408 53.6438C51.6558 54.6831 55.9289 55.6712 57.8608 55.9775C57.9589 55.9931 58.0613 56.013 58.168 56.0371C61.6816 56.8385 63.7484 57.9403 63.4537 61.1644C63.3033 62.4427 62.1881 64.4554 61.0144 63.7789C55.3013 60.9804 43.8477 63.35 43.8477 63.35C43.8477 63.35 37.9371 66.1915 33.0314 64.8884C28.1257 63.5871 23.0827 61.5576 21.1047 54.7696C20.3234 51.0406 21.6641 43.4087 21.6654 39.6152C21.6658 36.7047 21.2414 27.9748 21.2414 27.9748C21.3177 23.328 26.2272 23.2474 26.7468 28.1545L27.1817 34.178C27.299 35.9544 28.9969 37.2948 29.5257 34.5234L31.104 22.2895C31.9331 17.0748 37.5062 17.5637 36.8762 23.3888L34.9942 37.0693C34.8359 37.5159 35.0915 41.2022 36.8078 35.4557L41.2376 20.9353C41.7565 19.6033 42.4874 18.1892 43.9069 17.6127C44.2715 17.4649 44.6905 17.5076 45.0809 17.4549L45.6201 17.6342Z" fill="#EEBA08" stroke="#EEBA08" stroke-width="0.5" stroke-miterlimit="10" stroke-linecap="round" stroke-linejoin="round"/>
<path d="M36.1879 67.1467C36.397 67.2907 36.7093 67.3893 37.0099 67.2735C37.2269 67.1901 44.3996 64.4146 44.6166 64.3242C45.239 64.0679 45.5212 63.6924 45.5984 63.3041C45.7168 62.7135 47.7176 56.7203 52.7557 52.4594C53.295 52.0048 51.4016 50.0897 49.8 51.3101C48.7025 52.1464 46.1015 55.3889 45.4185 55.2957C44.891 55.2234 43.4046 53.5543 42.2954 49.5108L40.0668 41.381C39.954 41.0235 39.7071 40.7235 39.3779 40.5442C39.0486 40.3649 38.6627 40.3201 38.3012 40.4194C37.9396 40.5186 37.6306 40.7541 37.439 41.0764C37.2475 41.3986 37.1883 41.7826 37.2738 42.1476L39.2177 49.2426C39.4082 49.9342 39.2987 50.335 38.929 50.4424C38.6002 50.5395 38.4178 50.41 38.1797 49.7772L35.3699 41.4086C35.3097 41.2283 35.2144 41.0617 35.0897 40.9183C34.965 40.7749 34.8132 40.6574 34.6431 40.5727C34.4729 40.488 34.2877 40.4376 34.0981 40.4245C33.9085 40.4113 33.7182 40.4357 33.538 40.4962C33.3572 40.5559 33.19 40.6508 33.0461 40.7755C32.9022 40.9001 32.7844 41.052 32.6995 41.2224C32.6145 41.3927 32.5642 41.5783 32.5513 41.7682C32.5385 41.9581 32.5633 42.1488 32.6245 42.329L35.2958 50.2871C35.5297 50.9876 35.5508 51.4317 35.1306 51.5392C34.8784 51.6041 34.6689 51.3018 34.5255 51.0083L31.4338 43.8256C31.3622 43.6457 31.2552 43.4819 31.1192 43.344C30.9832 43.2061 30.821 43.0969 30.642 43.0228C30.4631 42.9487 30.2711 42.9112 30.0775 42.9125C29.8838 42.9138 29.6924 42.954 29.5145 43.0306C29.3366 43.1071 29.1758 43.2186 29.0418 43.3584C28.9077 43.4981 28.803 43.6633 28.7338 43.8443C28.6647 44.0252 28.6325 44.2181 28.6392 44.4117C28.6459 44.6052 28.6913 44.7955 28.7728 44.9712L31.6208 51.5916C32.0406 52.5636 32.0786 53.0001 31.6941 53.1659C31.3029 53.3367 31.1116 53.0535 30.9862 52.7952L28.3104 47.2884C28.1473 46.9929 27.877 46.7713 27.5553 46.6692C27.2335 46.5672 26.8849 46.5925 26.5813 46.74C26.2777 46.8874 26.0423 47.1458 25.9236 47.4618C25.8049 47.7778 25.8121 48.1273 25.9436 48.4381L28.8575 54.4312L28.8573 54.4332L28.8581 54.4343L30.606 58.0277C30.9172 58.7198 31.1825 59.3928 31.3931 60.0902C32.6246 64.1887 35.4972 66.6635 36.1879 67.1467Z" fill="white"/>
</g>
<defs>
<clipPath id="clip0_47_746">
<rect width="60.3979" height="57.8787" fill="white" transform="matrix(0.896909 0.442215 -0.498086 0.867128 29.8301 0.888672)"/>
</clipPath>
</defs>
</svg>
