<svg width="32" height="32" viewBox="0 0 32 32" fill="none" xmlns="http://www.w3.org/2000/svg">
<path d="M6.43312 16.0332L11.5998 21.1999C11.8442 21.4443 11.9665 21.7554 11.9665 22.1332C11.9665 22.511 11.8442 22.8221 11.5998 23.0665C11.3553 23.311 11.0442 23.4332 10.6665 23.4332C10.2887 23.4332 9.97757 23.311 9.73312 23.0665L3.59979 16.9332C3.46646 16.7999 3.37179 16.6554 3.31579 16.4999C3.25979 16.3443 3.23268 16.1776 3.23446 15.9999C3.23623 15.8221 3.26423 15.6554 3.31846 15.4999C3.37268 15.3443 3.4669 15.1999 3.60112 15.0665L9.73446 8.9332C10.0011 8.66654 10.318 8.5332 10.6851 8.5332C11.0522 8.5332 11.3687 8.66654 11.6345 8.9332C11.9002 9.19987 12.0336 9.51676 12.0345 9.88387C12.0353 10.251 11.902 10.5674 11.6345 10.8332L6.43312 16.0332ZM25.5665 15.9665L20.3998 10.7999C20.1553 10.5554 20.0331 10.2443 20.0331 9.86654C20.0331 9.48876 20.1553 9.17765 20.3998 8.9332C20.6442 8.68876 20.9553 8.56654 21.3331 8.56654C21.7109 8.56654 22.022 8.68876 22.2665 8.9332L28.3998 15.0665C28.5331 15.1999 28.6278 15.3443 28.6838 15.4999C28.7398 15.6554 28.7673 15.8221 28.7665 15.9999C28.7656 16.1776 28.738 16.3443 28.6838 16.4999C28.6296 16.6554 28.5349 16.7999 28.3998 16.9332L22.2665 23.0665C21.9998 23.3332 21.6887 23.4612 21.3331 23.4505C20.9776 23.4399 20.6665 23.3008 20.3998 23.0332C20.1331 22.7656 19.9998 22.4492 19.9998 22.0839C19.9998 21.7185 20.1331 21.4016 20.3998 21.1332L25.5665 15.9665Z" fill="#EEBA08"/>
</svg>
