<svg width="20" height="20" viewBox="0 0 20 20" fill="none" xmlns="http://www.w3.org/2000/svg">
<g clip-path="url(#clip0_1_1243)">
<path d="M8.36133 8.86064H9.84277C9.97629 9.01327 10.1259 9.15106 10.2889 9.27162C9.46027 9.28517 8.68433 9.61935 8.09918 10.2177C7.51844 10.8115 7.17203 11.6124 7.12379 12.4727L7.09629 12.9587H4.00457L4.08453 11.5469C4.17148 10.0155 5.31984 8.86064 6.75574 8.86064H8.36133ZM11.9467 9.27029C13.1868 9.27029 14.1956 8.26146 14.1956 7.02142C14.1956 5.78138 13.1868 4.77142 11.9467 4.77142C10.7067 4.77142 9.69672 5.78076 9.69672 7.02142C9.69672 8.26208 10.7061 9.27029 11.9467 9.27029ZM1.79855 9.52931C1.84289 9.52933 1.88657 9.51857 1.92582 9.49794C1.96508 9.47732 1.99873 9.44746 2.02387 9.41094C2.04901 9.37442 2.06489 9.33233 2.07015 9.2883C2.0754 9.24427 2.06987 9.19963 2.05402 9.15822C1.46105 7.60978 1.87863 5.37033 4.77199 3.64962L5.01652 4.0797C5.06457 4.16369 5.15324 4.21642 5.25012 4.21759C5.3466 4.21798 5.43722 4.16954 5.48762 4.08673L7.37355 1.00079C7.39832 0.960276 7.41211 0.914 7.41355 0.866531C7.41499 0.819061 7.40403 0.772037 7.38176 0.730092C7.3594 0.688196 7.32655 0.652819 7.28643 0.627417C7.24631 0.602015 7.20028 0.587458 7.15285 0.58517L3.41379 0.407045C3.31418 0.401576 3.22004 0.451967 3.16769 0.536732C3.14205 0.578485 3.12809 0.626357 3.12726 0.675349C3.12644 0.724341 3.13878 0.772656 3.16301 0.815248L3.46183 1.34181C1.93488 2.28986 0.987615 3.47306 0.644646 4.86173C0.289959 6.29689 0.608709 7.86642 1.56652 9.40079C1.59113 9.44013 1.62534 9.47256 1.66593 9.49504C1.70652 9.51752 1.75215 9.52931 1.79855 9.52931ZM16.2224 12.5036C16.1365 10.9721 14.9881 9.81732 13.5512 9.81732H10.3411C8.90418 9.81732 7.75582 10.9721 7.66996 12.5034L7.58996 13.9165H16.3023L16.2224 12.5036ZM6.11133 6.06365C6.11133 7.30431 7.12066 8.31365 8.36133 8.31365C8.70732 8.31393 9.04865 8.23391 9.35847 8.0799C9.22043 7.7441 9.14951 7.38452 9.14972 7.02146C9.14972 6.12533 9.57383 5.32685 10.2313 4.81462C9.82722 4.2122 9.13992 3.81478 8.36133 3.81478C7.12066 3.81478 6.11133 4.82361 6.11133 6.06365ZM9.76183 18.0782C8.21301 18.6704 5.97355 18.2524 4.25324 15.3602L4.68332 15.1153C4.7246 15.0917 4.75902 15.0577 4.7832 15.0168C4.80738 14.9758 4.82048 14.9292 4.82121 14.8817C4.82198 14.8341 4.81031 14.7872 4.78736 14.7455C4.7644 14.7039 4.73096 14.6689 4.69035 14.6442L1.60441 12.7586C1.56389 12.7339 1.51762 12.7201 1.47015 12.7187C1.42268 12.7172 1.37565 12.7282 1.33371 12.7504C1.29174 12.7726 1.2563 12.8054 1.23088 12.8454C1.20546 12.8855 1.19095 12.9315 1.18879 12.979L1.01027 16.7172C1.00802 16.7661 1.01891 16.8146 1.04178 16.8578C1.06466 16.9011 1.09869 16.9373 1.14035 16.9629C1.182 16.9886 1.22979 17.0027 1.27872 17.0036C1.32765 17.0045 1.37592 16.9922 1.41847 16.968L1.94504 16.6696C2.89387 18.1973 4.07746 19.1446 5.46613 19.4876C5.8466 19.5813 6.23605 19.6282 6.63215 19.6282C7.73019 19.6282 8.87668 19.2692 10.0044 18.5657C10.062 18.5296 10.1042 18.4734 10.1227 18.408C10.1412 18.3426 10.1347 18.2726 10.1044 18.2118C10.0741 18.1509 10.0223 18.1035 9.95894 18.0788C9.8956 18.0541 9.82533 18.0539 9.76183 18.0782ZM18.7415 10.6325C18.7055 10.5748 18.6493 10.5326 18.5839 10.5141C18.5185 10.4956 18.4485 10.5021 18.3876 10.5325C18.2618 10.5954 18.2036 10.7434 18.254 10.8751C18.8466 12.4243 18.429 14.6633 15.5361 16.3825L15.2911 15.9536C15.2677 15.9122 15.2338 15.8778 15.1929 15.8536C15.152 15.8294 15.1054 15.8163 15.0579 15.8157H15.0536C14.9587 15.8157 14.87 15.8649 14.8204 15.9465L12.9345 19.0325C12.9097 19.073 12.8959 19.1193 12.8945 19.1667C12.8931 19.2142 12.904 19.2612 12.9263 19.3032C12.9486 19.3451 12.9815 19.3805 13.0216 19.4059C13.0617 19.4313 13.1078 19.4458 13.1552 19.4481L16.8931 19.6266C16.8978 19.6266 16.9021 19.627 16.9064 19.627C16.9531 19.6269 16.999 19.6148 17.0397 19.592C17.0804 19.5691 17.1147 19.5363 17.1392 19.4965C17.1915 19.4118 17.1935 19.3051 17.1443 19.2184L16.845 18.6907C18.372 17.7426 19.3196 16.5594 19.663 15.1711C20.0177 13.7364 19.6989 12.1669 18.7415 10.6325ZM10.5466 1.95509C12.0946 1.36212 14.3337 1.77892 16.0536 4.67228L15.6247 4.91681C15.5834 4.94037 15.5489 4.97431 15.5247 5.01528C15.5006 5.05625 15.4875 5.10283 15.4868 5.1504C15.486 5.19797 15.4977 5.24492 15.5206 5.28659C15.5436 5.32825 15.577 5.36318 15.6177 5.3879L18.7036 7.27462C18.7474 7.30158 18.7966 7.31486 18.8462 7.31486C18.89 7.31486 18.9341 7.30431 18.9743 7.28322C19.0163 7.26092 19.0517 7.22809 19.0771 7.18796C19.1025 7.14782 19.117 7.10176 19.1193 7.05431L19.2978 3.31525C19.3001 3.26637 19.2892 3.21778 19.2663 3.17452C19.2435 3.13126 19.2094 3.09492 19.1677 3.06928C19.1261 3.04364 19.0783 3.02963 19.0294 3.02872C18.9804 3.0278 18.9322 3.04001 18.8896 3.06408L18.3618 3.36329C17.4134 1.83634 16.2302 0.888685 14.8415 0.545717C13.4064 0.19142 11.8372 0.51017 10.3036 1.46798C10.246 1.50403 10.2038 1.56023 10.1854 1.62564C10.1669 1.69106 10.1734 1.76101 10.2036 1.82189C10.234 1.88274 10.286 1.9301 10.3494 1.95473C10.4128 1.97935 10.4831 1.97948 10.5466 1.95509Z" fill="#D6A850"/>
</g>
<defs>
<clipPath id="clip0_1_1243">
<rect width="20" height="20" fill="white"/>
</clipPath>
</defs>
</svg>
