<svg width="32" height="32" viewBox="0 0 32 32" fill="none" xmlns="http://www.w3.org/2000/svg">
<path d="M15.9993 29.3332C15.466 29.3332 14.9549 29.2332 14.466 29.0332C13.9771 28.8332 13.5438 28.5443 13.166 28.1665C12.5216 27.5221 11.966 27.0998 11.4993 26.8998C11.0327 26.6998 10.3327 26.5998 9.39935 26.5998C8.28824 26.5998 7.34379 26.2109 6.56602 25.4332C5.78824 24.6554 5.39935 23.7109 5.39935 22.5998C5.39935 21.6665 5.29935 20.9665 5.09935 20.4998C4.89935 20.0332 4.47713 19.4776 3.83268 18.8332C3.4549 18.4554 3.16602 18.0221 2.96602 17.5332C2.76602 17.0443 2.66602 16.5332 2.66602 15.9998C2.66602 15.4665 2.76602 14.9554 2.96602 14.4665C3.16602 13.9776 3.4549 13.5443 3.83268 13.1665C4.47713 12.5221 4.89935 11.9665 5.09935 11.4998C5.29935 11.0332 5.39935 10.3332 5.39935 9.39984C5.39935 8.28873 5.78824 7.34428 6.56602 6.5665C7.34379 5.78873 8.28824 5.39984 9.39935 5.39984C10.3327 5.39984 11.0327 5.29984 11.4993 5.09984C11.966 4.89984 12.5216 4.47761 13.166 3.83317C13.5438 3.45539 13.9771 3.1665 14.466 2.9665C14.9549 2.7665 15.466 2.6665 15.9993 2.6665C16.5327 2.6665 17.0438 2.7665 17.5327 2.9665C18.0216 3.1665 18.4549 3.45539 18.8327 3.83317C19.4771 4.47761 20.0327 4.89984 20.4993 5.09984C20.966 5.29984 21.666 5.39984 22.5993 5.39984C23.7105 5.39984 24.6549 5.78873 25.4327 6.5665C26.2105 7.34428 26.5993 8.28873 26.5993 9.39984C26.5993 10.3332 26.6993 11.0332 26.8993 11.4998C27.0993 11.9665 27.5216 12.5221 28.166 13.1665C28.5438 13.5443 28.8327 13.9776 29.0327 14.4665C29.2327 14.9554 29.3327 15.4665 29.3327 15.9998C29.3327 16.5332 29.2327 17.0443 29.0327 17.5332C28.8327 18.0221 28.5438 18.4554 28.166 18.8332C27.5216 19.4776 27.0993 20.0332 26.8993 20.4998C26.6993 20.9665 26.5993 21.6665 26.5993 22.5998C26.5993 23.7109 26.2105 24.6554 25.4327 25.4332C24.6549 26.2109 23.7105 26.5998 22.5993 26.5998C21.666 26.5998 20.966 26.6998 20.4993 26.8998C20.0327 27.0998 19.4771 27.5221 18.8327 28.1665C18.4549 28.5443 18.0216 28.8332 17.5327 29.0332C17.0438 29.2332 16.5327 29.3332 15.9993 29.3332ZM15.9993 26.6665C16.1771 26.6665 16.3496 26.6274 16.5167 26.5492C16.6838 26.4709 16.8225 26.3767 16.9327 26.2665C17.8438 25.3554 18.6993 24.7389 19.4993 24.4172C20.2993 24.0954 21.3327 23.9341 22.5993 23.9332C22.9771 23.9332 23.294 23.8056 23.55 23.5505C23.806 23.2954 23.9336 22.9785 23.9327 22.5998C23.9327 21.3109 24.094 20.2723 24.4167 19.4838C24.7393 18.6954 25.3558 17.8452 26.266 16.9332C26.5327 16.6665 26.666 16.3554 26.666 15.9998C26.666 15.6443 26.5327 15.3332 26.266 15.0665C25.3549 14.1554 24.7385 13.2998 24.4167 12.4998C24.0949 11.6998 23.9336 10.6665 23.9327 9.39984C23.9327 9.02206 23.8047 8.70561 23.5487 8.4505C23.2927 8.19539 22.9762 8.06739 22.5993 8.0665C21.3105 8.0665 20.2718 7.90561 19.4833 7.58384C18.6949 7.26206 17.8447 6.64517 16.9327 5.73317C16.8216 5.62206 16.6829 5.52739 16.5167 5.44917C16.3505 5.37095 16.178 5.33228 15.9993 5.33317C15.8207 5.33406 15.6487 5.37317 15.4833 5.4505C15.318 5.52784 15.1789 5.62206 15.066 5.73317C14.1549 6.64428 13.2993 7.26117 12.4993 7.58384C11.6993 7.9065 10.666 8.06739 9.39935 8.0665C9.02157 8.0665 8.70513 8.1945 8.45002 8.4505C8.1949 8.7065 8.0669 9.02295 8.06602 9.39984C8.06602 10.6887 7.90513 11.7278 7.58335 12.5172C7.26157 13.3065 6.64468 14.1563 5.73268 15.0665C5.46602 15.3332 5.33268 15.6443 5.33268 15.9998C5.33268 16.3554 5.46602 16.6665 5.73268 16.9332C6.64379 17.8443 7.26068 18.6998 7.58335 19.4998C7.90602 20.2998 8.0669 21.3332 8.06602 22.5998C8.06602 22.9776 8.19402 23.2945 8.45002 23.5505C8.70602 23.8065 9.02246 23.9341 9.39935 23.9332C10.6882 23.9332 11.7273 24.0945 12.5167 24.4172C13.306 24.7398 14.1558 25.3563 15.066 26.2665C15.1771 26.3776 15.3162 26.4723 15.4833 26.5505C15.6505 26.6287 15.8225 26.6674 15.9993 26.6665ZM19.3327 21.3332C19.8882 21.3332 20.3607 21.1389 20.75 20.7505C21.1393 20.3621 21.3336 19.8896 21.3327 19.3332C21.3318 18.7767 21.1376 18.3047 20.75 17.9172C20.3625 17.5296 19.89 17.3349 19.3327 17.3332C18.7753 17.3314 18.3033 17.5261 17.9167 17.9172C17.53 18.3083 17.3353 18.7803 17.3327 19.3332C17.33 19.8861 17.5247 20.3585 17.9167 20.7505C18.3087 21.1425 18.7807 21.3367 19.3327 21.3332ZM11.666 20.3332C11.9327 20.5998 12.2438 20.7332 12.5993 20.7332C12.9549 20.7332 13.266 20.5998 13.5327 20.3332L20.3327 13.5665C20.5993 13.2998 20.7327 12.9834 20.7327 12.6172C20.7327 12.2509 20.5993 11.9341 20.3327 11.6665C20.066 11.3989 19.7496 11.2656 19.3833 11.2665C19.0171 11.2674 18.7002 11.4007 18.4327 11.6665L11.666 18.4665C11.3993 18.7332 11.266 19.0443 11.266 19.3998C11.266 19.7554 11.3993 20.0665 11.666 20.3332ZM14.0833 14.0838C14.4718 13.6945 14.666 13.2221 14.666 12.6665C14.666 12.1109 14.4718 11.6389 14.0833 11.2505C13.6949 10.8621 13.2225 10.6674 12.666 10.6665C12.1096 10.6656 11.6376 10.8603 11.25 11.2505C10.8625 11.6407 10.6678 12.1127 10.666 12.6665C10.6642 13.2203 10.8589 13.6927 11.25 14.0838C11.6411 14.4749 12.1131 14.6692 12.666 14.6665C13.2189 14.6638 13.6913 14.4696 14.0833 14.0838Z" fill="#EEBA08"/>
</svg>
