<svg width="20" height="20" viewBox="0 0 20 20" fill="none" xmlns="http://www.w3.org/2000/svg">
<g clip-path="url(#clip0_1_1196)">
<path d="M10.846 14.6276H10.9165C11.006 14.5631 11.1045 14.5121 11.2089 14.4764H11.3399C11.4186 14.4394 11.5051 14.4221 11.5919 14.426H11.7229C11.8216 14.3939 11.9227 14.3703 12.0254 14.3554H12.096L12.4589 14.305H17.973V2.7526H13.4972C11.827 2.7526 10.473 4.10659 10.473 5.7768L10.5133 14.8191C10.6172 14.7439 10.7287 14.6797 10.846 14.6276Z" fill="url(#paint0_linear_1_1196)"/>
<path d="M18.8903 4.80841V14.7378C18.8905 14.7446 18.8905 14.7514 18.8903 14.7582C18.8847 15.0087 18.6771 15.2072 18.4266 15.2015H13.4972C10.9569 15.2015 10.473 15.9374 10.473 17.0463V17.268C11.5517 16.4313 13.3762 16.4313 14.3137 16.4313H19.969L19.9992 4.80836L18.8903 4.80841ZM7.19677 14.5161H7.56973L7.9427 14.5665H8.01325L8.31567 14.637H8.4467C8.53266 14.6418 8.61752 14.6588 8.6987 14.6875H8.82974L9.12209 14.8387H9.19264C9.29909 14.9099 9.41023 14.9739 9.5253 15.0302V5.77615C9.5253 4.10594 8.17131 2.75195 6.50111 2.75195H2.02539V14.5161H7.19677Z" fill="url(#paint1_linear_1_1196)"/>
<path d="M6.50202 15.232H1.57258C1.45119 15.227 1.33611 15.1766 1.25021 15.0907C1.1643 15.0048 1.11385 14.8897 1.10889 14.7683V4.80859H0V16.4114H5.61494C6.62299 16.4114 8.45768 16.4114 9.53633 17.2683L9.52626 17.0768C9.52622 15.9679 9.02217 15.232 6.50202 15.232Z" fill="url(#paint2_linear_1_1196)"/>
</g>
<defs>
<linearGradient id="paint0_linear_1_1196" x1="9.99918" y1="2.73242" x2="9.99918" y2="14.8191" gradientUnits="userSpaceOnUse">
<stop stop-color="#EEBF65"/>
<stop offset="1" stop-color="#EEBA08"/>
</linearGradient>
<linearGradient id="paint1_linear_1_1196" x1="11.0123" y1="2.75195" x2="11.0123" y2="17.268" gradientUnits="userSpaceOnUse">
<stop stop-color="#EEBF65"/>
<stop offset="1" stop-color="#EEBA08"/>
</linearGradient>
<linearGradient id="paint2_linear_1_1196" x1="4.76816" y1="4.80859" x2="4.76817" y2="17.2683" gradientUnits="userSpaceOnUse">
<stop stop-color="#EEBF65"/>
<stop offset="1" stop-color="#EEBA08"/>
</linearGradient>
<clipPath id="clip0_1_1196">
<rect width="20" height="20" fill="white"/>
</clipPath>
</defs>
</svg>
