<svg width="20" height="20" viewBox="0 0 20 20" fill="none" xmlns="http://www.w3.org/2000/svg">
<path d="M18.125 10C18.1156 11.3022 17.9506 12.5986 17.6333 13.8617C17.6275 13.8892 17.6283 13.9158 17.6217 13.945C17.6067 14.005 17.5858 14.0625 17.57 14.1225C17.5475 14.2125 17.5183 14.2992 17.4942 14.3883C17.4158 14.6742 17.3417 14.9617 17.25 15.2383L16.8575 16.51C16.7122 16.9779 16.4212 17.3871 16.0269 17.6779C15.6326 17.9687 15.1558 18.126 14.6658 18.1267C14.4398 18.1266 14.2151 18.0926 13.9992 18.0258L13.1942 17.7758C13.0109 17.72 12.8404 17.6285 12.6926 17.5066C12.5447 17.3848 12.4223 17.235 12.3325 17.0657C12.2426 16.8965 12.187 16.7112 12.1688 16.5205C12.1507 16.3297 12.1703 16.1373 12.2267 15.9542L13.4633 11.9092C13.5194 11.7259 13.611 11.5555 13.733 11.4077C13.8549 11.2599 14.0048 11.1376 14.1741 11.0477C14.3433 10.9579 14.5286 10.9022 14.7194 10.884C14.9102 10.8659 15.1026 10.8854 15.2858 10.9417L16.0708 11.1825C16.3271 11.2626 16.567 11.3879 16.7792 11.5525C16.8395 11.0371 16.8715 10.5189 16.875 10C16.875 8.17664 16.1507 6.42795 14.8614 5.13864C13.572 3.84933 11.8234 3.125 10 3.125C8.17664 3.125 6.42795 3.84933 5.13864 5.13864C3.84933 6.42795 3.125 8.17664 3.125 10C3.12868 10.5194 3.16095 11.0383 3.22167 11.5542C3.43403 11.3899 3.67386 11.2646 3.93 11.1842L4.715 10.9442C4.89814 10.8879 5.09057 10.8683 5.28129 10.8864C5.47201 10.9046 5.65729 10.9601 5.82654 11.0499C5.99578 11.1397 6.14569 11.2619 6.26768 11.4096C6.38967 11.5573 6.48135 11.7277 6.5375 11.9108L7.77417 15.9575C7.83048 16.1406 7.85008 16.3331 7.83186 16.5238C7.81365 16.7145 7.75796 16.8998 7.668 17.0689C7.57804 17.2381 7.45557 17.3878 7.30762 17.5096C7.15968 17.6313 6.98915 17.7226 6.80583 17.7783L6.00167 18.0283C5.78575 18.0951 5.56102 18.1291 5.335 18.1292C4.84507 18.1285 4.36819 17.9712 3.97392 17.6804C3.57966 17.3896 3.28864 16.9804 3.14333 16.5125L2.75 15.2308C2.65833 14.9583 2.58333 14.6667 2.5 14.3775C2.47667 14.2942 2.44833 14.2108 2.42583 14.12C2.41083 14.06 2.39 14.0042 2.375 13.9433C2.36833 13.9158 2.36917 13.8892 2.36333 13.86C2.04734 12.5974 1.8834 11.3015 1.875 10C1.875 7.84512 2.73102 5.77849 4.25476 4.25476C5.77849 2.73102 7.84512 1.875 10 1.875C12.1549 1.875 14.2215 2.73102 15.7452 4.25476C17.269 5.77849 18.125 7.84512 18.125 10Z" fill="url(#paint0_linear_1_1188)"/>
<defs>
<linearGradient id="paint0_linear_1_1188" x1="10" y1="1.875" x2="10" y2="18.1292" gradientUnits="userSpaceOnUse">
<stop stop-color="#EEBF65"/>
<stop offset="1" stop-color="#EEBA08"/>
</linearGradient>
</defs>
</svg>
