<svg width="16" height="16" viewBox="0 0 16 16" fill="none" xmlns="http://www.w3.org/2000/svg">
<path d="M13.5951 5.35437L12.4305 4.34299C11.5914 3.61427 11.2624 3.22226 10.8081 3.36085C10.2415 3.53365 10.428 4.62398 10.428 4.99208C9.54707 4.99208 8.63121 4.92432 7.76287 5.06549C4.89635 5.53153 4 7.57101 4 9.76828C4.81132 9.27094 5.62183 8.71634 6.59694 8.48584C7.81415 8.19811 9.17356 8.33542 10.428 8.33542C10.428 8.70349 10.2415 9.79387 10.8081 9.96665C11.323 10.1236 11.5914 9.71322 12.4305 8.9845L13.5951 7.97312C14.3095 7.35276 14.6667 7.04257 14.6667 6.66375C14.6667 6.28492 14.3095 5.97474 13.5951 5.35437Z" stroke="#D6A850" stroke-linecap="round" stroke-linejoin="round"/>
<path d="M7.04473 2C4.47124 2.00463 3.12363 2.06768 2.26241 2.92716C1.33301 3.85468 1.33301 5.3475 1.33301 8.33315C1.33301 11.3188 1.33301 12.8116 2.26241 13.7391C3.19181 14.6667 4.68766 14.6667 7.67936 14.6667C10.6711 14.6667 12.1669 14.6667 13.0963 13.7391C13.7434 13.0934 13.94 12.1736 13.9997 10.6667" stroke="#D6A850" stroke-linecap="round" stroke-linejoin="round"/>
</svg>
