<svg width="48" height="48" viewBox="0 0 48 48" fill="none" xmlns="http://www.w3.org/2000/svg">
<path d="M21.1004 6C13.3956 6.01388 9.361 6.20304 6.78256 8.78146C4 11.564 4 16.0425 4 24.9994C4 33.9564 4 38.4348 6.78256 41.2174C9.56514 44 14.0436 44 23.0006 44C31.9574 44 36.436 44 39.2186 41.2174C41.797 38.639 41.9862 34.6044 42 26.8996" stroke="#281240" stroke-width="3" stroke-linecap="round" stroke-linejoin="round"/>
<path d="M22.1114 26C20.6646 7.7327 33.6048 2.55108 43.9612 4.32878C44.3794 10.3827 41.4172 12.6496 35.776 13.6965C36.8654 14.8347 38.7902 16.2671 38.5826 18.0576C38.4348 19.3317 37.5694 19.9569 35.839 21.2072C32.0464 23.9472 27.653 25.675 22.1114 26Z" stroke="#281240" stroke-width="3" stroke-linecap="round" stroke-linejoin="round"/>
<path d="M18 34C22 23 25.9208 19.2727 30 16" stroke="#281240" stroke-width="3" stroke-linecap="round" stroke-linejoin="round"/>
</svg>
