<!DOCTYPE svg PUBLIC "-//W3C//DTD SVG 1.1//EN" "http://www.w3.org/Graphics/SVG/1.1/DTD/svg11.dtd">
<!-- Uploaded to: SVG Repo, www.svgrepo.com, Transformed by: SVG Repo Mixer Tools -->
<svg width="800px" height="800px" viewBox="0 0 24 24" fill="none" xmlns="http://www.w3.org/2000/svg">
<g id="SVGRepo_bgCarrier" stroke-width="0"/>
<g id="SVGRepo_tracerCarrier" stroke-linecap="round" stroke-linejoin="round"/>
<g id="SVGRepo_iconCarrier"> <g id="style=stroke"> <g id="unlock-line"> <path id="vector (Stroke)" fill-rule="evenodd" clip-rule="evenodd" d="M14.7023 1.8145C13.3271 1.21373 11.7909 1.08836 10.3365 1.4582C8.88214 1.82804 7.59245 2.672 6.6713 3.85671C5.75015 5.04142 5.25006 6.49932 5.25006 8C5.25006 8.41422 5.58584 8.75 6.00006 8.75C6.41427 8.75 6.75006 8.41422 6.75006 8C6.75006 6.8328 7.13902 5.69888 7.85547 4.77744C8.57192 3.856 9.57501 3.19959 10.7062 2.91193C11.8374 2.62428 13.0322 2.72179 14.1018 3.18906C15.1714 3.65633 16.0548 4.4667 16.6123 5.49212C16.8102 5.85602 17.2656 5.99061 17.6295 5.79275C17.9934 5.59488 18.128 5.13948 17.9301 4.77558C17.2132 3.45719 16.0775 2.41528 14.7023 1.8145Z" fill="#1c2542"/> <path id="vector (Stroke)_2" fill-rule="evenodd" clip-rule="evenodd" d="M1.25 13C1.25 9.82436 3.82436 7.25 7 7.25H17C20.1756 7.25 22.75 9.82436 22.75 13V17C22.75 20.1756 20.1756 22.75 17 22.75H7C3.82436 22.75 1.25 20.1756 1.25 17V13ZM7 8.75C4.65279 8.75 2.75 10.6528 2.75 13V17C2.75 19.3472 4.65279 21.25 7 21.25H17C19.3472 21.25 21.25 19.3472 21.25 17V13C21.25 10.6528 19.3472 8.75 17 8.75H7Z" fill="#1c2542"/> <path id="vector (Stroke)_3" fill-rule="evenodd" clip-rule="evenodd" d="M12 12.25C12.4142 12.25 12.75 12.5858 12.75 13V17C12.75 17.4142 12.4142 17.75 12 17.75C11.5858 17.75 11.25 17.4142 11.25 17V13C11.25 12.5858 11.5858 12.25 12 12.25Z" fill="#1c2542"/> </g> </g> </g>
</svg>