<svg width="45" height="45" viewBox="0 0 45 45" fill="none" xmlns="http://www.w3.org/2000/svg">
<path d="M35.2873 10.41L30.3223 5.82C29.4223 4.965 28.2373 4.5 26.9923 4.5H13.0573C10.3573 4.5 8.15234 6.705 8.15234 9.405V35.595C8.15234 38.295 10.3573 40.5 13.0573 40.5H31.9423C34.6423 40.5 36.8473 38.295 36.8473 35.595V14.01C36.8473 12.645 36.2773 11.34 35.2873 10.41ZM17.6023 16.83C21.6568 12.774 21.5173 12.8955 21.6673 12.795C21.911 12.6302 22.1982 12.5414 22.4923 12.54H22.5073C22.8973 12.54 23.2723 12.705 23.5573 12.975L27.3973 16.83C27.6778 17.1105 27.8354 17.4909 27.8354 17.8875C27.8354 18.2841 27.6778 18.6645 27.3973 18.945C27.1169 19.2255 26.7365 19.383 26.3398 19.383C25.9432 19.383 25.5628 19.2255 25.2823 18.945L24.0073 17.67V22.965C24.0073 23.805 23.3323 24.465 22.5073 24.465C21.6673 24.465 21.0073 23.805 21.0073 22.965V17.67L19.7173 18.96C19.4357 19.2383 19.0558 19.3944 18.6598 19.3944C18.2639 19.3944 17.884 19.2383 17.6023 18.96C17.0173 18.375 17.0173 17.415 17.6023 16.83ZM28.3123 32.46H16.6873C15.8623 32.46 15.1873 31.785 15.1873 30.96C15.1873 30.135 15.8623 29.46 16.6873 29.46H28.3123C29.1373 29.46 29.8123 30.135 29.8123 30.96C29.8123 31.785 29.1373 32.46 28.3123 32.46Z" fill="#D6A850"/>
</svg>
