<svg width="32" height="32" viewBox="0 0 32 32" fill="none" xmlns="http://www.w3.org/2000/svg">
<path d="M20.0007 5.3335C18.5862 5.3335 17.2296 5.8954 16.2294 6.89559C15.2292 7.89579 14.6673 9.25234 14.6673 10.6668C14.6673 12.0813 15.2292 13.4379 16.2294 14.4381C17.2296 15.4383 18.5862 16.0002 20.0007 16.0002C21.4151 16.0002 22.7717 15.4383 23.7719 14.4381C24.7721 13.4379 25.334 12.0813 25.334 10.6668C25.334 9.25234 24.7721 7.89579 23.7719 6.89559C22.7717 5.8954 21.4151 5.3335 20.0007 5.3335ZM20.0007 7.86683C20.3684 7.86683 20.7325 7.93925 21.0722 8.07997C21.4119 8.22068 21.7205 8.42693 21.9806 8.68693C22.2406 8.94693 22.4468 9.2556 22.5875 9.59532C22.7282 9.93503 22.8007 10.2991 22.8007 10.6668C22.8007 11.0345 22.7282 11.3986 22.5875 11.7383C22.4468 12.0781 22.2406 12.3867 21.9806 12.6467C21.7205 12.9067 21.4119 13.113 21.0722 13.2537C20.7325 13.3944 20.3684 13.4668 20.0007 13.4668C19.633 13.4668 19.2688 13.3944 18.9291 13.2537C18.5894 13.113 18.2808 12.9067 18.0208 12.6467C17.7607 12.3867 17.5545 12.0781 17.4138 11.7383C17.2731 11.3986 17.2007 11.0345 17.2007 10.6668C17.2007 9.92422 17.4957 9.21203 18.0208 8.68693C18.5459 8.16183 19.258 7.86683 20.0007 7.86683ZM5.33398 9.3335V13.3335H1.33398V16.0002H5.33398V20.0002H8.00065V16.0002H12.0007V13.3335H8.00065V9.3335H5.33398ZM20.0007 17.3335C16.4407 17.3335 9.33398 19.1068 9.33398 22.6668V26.6668H30.6673V22.6668C30.6673 19.1068 23.5607 17.3335 20.0007 17.3335ZM20.0007 19.8668C23.9607 19.8668 28.134 21.8135 28.134 22.6668V24.1335H11.8673V22.6668C11.8673 21.8135 16.0007 19.8668 20.0007 19.8668Z" fill="#EEBA08"/>
</svg>
