<svg width="48" height="48" viewBox="0 0 48 48" fill="none" xmlns="http://www.w3.org/2000/svg">
<path d="M4 24C4 15.5147 4 11.2721 6.63604 8.63604C9.27208 6 13.5147 6 22 6C30.4852 6 34.728 6 37.364 8.63604C40 11.2721 40 15.5147 40 24C40 32.4852 40 36.728 37.364 39.364C34.728 42 30.4852 42 22 42C13.5147 42 9.27208 42 6.63604 39.364C4 36.728 4 32.4852 4 24Z" stroke="#281240" stroke-width="3" stroke-linejoin="round"/>
<path d="M22 33C22 33 12 26.647 12 20.5C12 17.4624 14.1053 15 17 15C18.5 15 20 15.5294 22 17.6471C24 15.5294 25.5 15 27 15C29.8948 15 32 17.4624 32 20.5C32 26.647 22 33 22 33Z" stroke="#281240" stroke-width="3" stroke-linejoin="round"/>
</svg>
