<svg width="48" height="48" viewBox="0 0 48 48" fill="none" xmlns="http://www.w3.org/2000/svg">
<path d="M7 20V30C7 35.6568 7 38.4852 8.75734 40.2426C10.5147 42 13.3431 42 19 42H29C34.6568 42 37.4854 42 39.2426 40.2426C41 38.4852 41 35.6568 41 30V20" stroke="#281240" stroke-width="3" stroke-linecap="round" stroke-linejoin="round"/>
<path d="M34 15.0039C34 17.7653 31.7614 20.0002 29 20.0002C26.2386 20.0002 24 17.7616 24 15.0002C24 17.7616 21.7614 20.0002 19 20.0002C16.2386 20.0002 14 17.7616 14 15.0002C14 17.7616 11.6531 20.0002 8.75799 20.0002C7.19965 20.0002 5.80013 19.3516 4.83997 18.322C3.18921 16.5518 4.25119 13.9483 5.62893 11.9771L6.40401 10.9173C8.16769 8.50564 9.04953 7.29984 10.3298 6.65012C11.6101 6.0004 13.104 6.0006 16.0917 6.001L31.9102 6.0031C34.897 6.0035 36.3904 6.0037 37.6702 6.6534C38.95 7.3031 39.8316 8.50852 41.5948 10.9194L42.371 11.9808C43.7488 13.952 44.8108 16.5556 43.16 18.3257C42.1998 19.3553 40.8004 20.0038 39.242 20.0038C36.3468 20.0038 34 17.7653 34 15.0039Z" stroke="#281240" stroke-width="3" stroke-linecap="round" stroke-linejoin="round"/>
<path d="M29.9942 34C28.6266 35.2144 26.4494 36 23.997 36C21.5446 36 19.3675 35.2144 18 34" stroke="#281240" stroke-width="3" stroke-linecap="round" stroke-linejoin="round"/>
</svg>
