<svg width="48" height="48" viewBox="0 0 48 48" fill="none" xmlns="http://www.w3.org/2000/svg">
<path d="M15.772 20C17.1435 22.7936 18.6088 25.4098 18.2704 28.6284C17.7294 33.7738 11.4902 35.7104 7.50044 38.0808C4.8865 39.6338 5.8638 44 9.07164 44C12.9609 44 16.4321 43.6896 19.9412 42.0402L26.8222 37.8056C27.7774 37.3566 28.9826 37.548 30 38" stroke="#281240" stroke-width="3" stroke-linecap="round" stroke-linejoin="round"/>
<path d="M32.021 20C30.6204 22.7936 29.124 25.4098 29.4696 28.6284C30.0222 33.7738 36.3934 35.7104 40.4678 38.0808C43.137 39.6338 42.139 44 38.8632 44C34.8916 44 31.3468 43.6896 27.7634 42.0402L20.7366 37.8056C19.9164 37.428 18.9155 37.5034 18 37.8056" stroke="#281240" stroke-width="3" stroke-linecap="round" stroke-linejoin="round"/>
<path d="M20 8C20 10.2091 21.7908 12 24 12C26.2092 12 28 10.2091 28 8C28 5.79086 26.2092 4 24 4C21.7908 4 20 5.79086 20 8Z" stroke="#281240" stroke-width="3"/>
<path d="M6 32C10.8917 32 13.0874 26.5898 13.7867 22.8582C13.9693 21.8842 14.2649 20.913 14.9125 20.1628C17.113 17.6135 20.368 16 24 16C27.632 16 30.887 17.6135 33.0874 20.1628C33.735 20.913 34.0308 21.8842 34.2134 22.8582C34.9126 26.5898 37.1082 32 42 32" stroke="#281240" stroke-width="3" stroke-linecap="round" stroke-linejoin="round"/>
</svg>
